%TF.GenerationSoftware,KiCad,Pcbnew,8.0.3*%
%TF.CreationDate,2024-07-22T19:56:26-05:00*%
%TF.ProjectId,WS2811 breakout board,57533238-3131-4206-9272-65616b6f7574,rev?*%
%TF.SameCoordinates,Original*%
%TF.FileFunction,Copper,L2,Bot*%
%TF.FilePolarity,Positive*%
%FSLAX46Y46*%
G04 Gerber Fmt 4.6, Leading zero omitted, Abs format (unit mm)*
G04 Created by KiCad (PCBNEW 8.0.3) date 2024-07-22 19:56:26*
%MOMM*%
%LPD*%
G01*
G04 APERTURE LIST*
%TA.AperFunction,ComponentPad*%
%ADD10C,2.000000*%
%TD*%
%TA.AperFunction,ComponentPad*%
%ADD11C,1.524000*%
%TD*%
%TA.AperFunction,ViaPad*%
%ADD12C,0.600000*%
%TD*%
%TA.AperFunction,Conductor*%
%ADD13C,0.400000*%
%TD*%
G04 APERTURE END LIST*
D10*
%TO.P,,1*%
%TO.N,N/C*%
X142240000Y-78740000D03*
%TD*%
D11*
%TO.P,REF\u002A\u002A,1*%
%TO.N,N/C*%
X152400000Y-91440000D03*
%TD*%
D10*
%TO.P,REF\u002A\u002A,1*%
%TO.N,N/C*%
X157480000Y-86360000D03*
%TD*%
%TO.P,,1*%
%TO.N,N/C*%
X144780000Y-78740000D03*
%TD*%
D11*
%TO.P,REF\u002A\u002A,1*%
%TO.N,N/C*%
X152400000Y-83820000D03*
%TD*%
D10*
%TO.P,,1*%
%TO.N,N/C*%
X149860000Y-78740000D03*
%TD*%
%TO.P,REF\u002A\u002A,1*%
%TO.N,N/C*%
X137160000Y-88900000D03*
%TD*%
%TO.P,,1*%
%TO.N,N/C*%
X147320000Y-78740000D03*
%TD*%
D11*
%TO.P,REF\u002A\u002A,1*%
%TO.N,N/C*%
X142240000Y-91440000D03*
%TD*%
D10*
%TO.P,REF\u002A\u002A,1*%
%TO.N,N/C*%
X137160000Y-83820000D03*
%TD*%
%TO.P,REF\u002A\u002A,1*%
%TO.N,N/C*%
X157480000Y-88900000D03*
%TD*%
D11*
%TO.P,REF\u002A\u002A,1*%
%TO.N,N/C*%
X142240000Y-83820000D03*
%TD*%
D10*
%TO.P,REF\u002A\u002A,1*%
%TO.N,N/C*%
X137160000Y-86360000D03*
%TD*%
D11*
%TO.P,REF\u002A\u002A,1*%
%TO.N,N/C*%
X149860000Y-83820000D03*
%TD*%
%TO.P,REF\u002A\u002A,1*%
%TO.N,N/C*%
X149860000Y-88900000D03*
%TD*%
D10*
%TO.P,REF\u002A\u002A,1*%
%TO.N,N/C*%
X157480000Y-83820000D03*
%TD*%
D12*
%TO.N,*%
X145336724Y-90966521D03*
X147320000Y-86360000D03*
X146891750Y-93178695D03*
%TD*%
D13*
%TO.N,*%
X146921399Y-93149046D02*
X153230954Y-93149046D01*
X147405649Y-87384001D02*
X148429650Y-86360000D01*
X152400000Y-81280000D02*
X154940000Y-81280000D01*
X141409046Y-93149046D02*
X146862101Y-93149046D01*
X149860000Y-83820000D02*
X152400000Y-81280000D01*
X153230954Y-93149046D02*
X157480000Y-88900000D01*
X142240000Y-81280000D02*
X142240000Y-78740000D01*
X147320000Y-86360000D02*
X142240000Y-81280000D01*
X146862101Y-93149046D02*
X146891750Y-93178695D01*
X152400000Y-91440000D02*
X157480000Y-86360000D01*
X147405649Y-89924001D02*
X147405649Y-87384001D01*
X154940000Y-81280000D02*
X157480000Y-83820000D01*
X145336724Y-90966521D02*
X146363129Y-90966521D01*
X146891750Y-93178695D02*
X146921399Y-93149046D01*
X148429650Y-86360000D02*
X149860000Y-86360000D01*
X146363129Y-90966521D02*
X147405649Y-89924001D01*
X149860000Y-86360000D02*
X152400000Y-83820000D01*
X137160000Y-88900000D02*
X141409046Y-93149046D01*
%TD*%
M02*
