%TF.GenerationSoftware,KiCad,Pcbnew,8.0.3*%
%TF.CreationDate,2024-07-22T19:56:25-05:00*%
%TF.ProjectId,WS2811 breakout board,57533238-3131-4206-9272-65616b6f7574,rev?*%
%TF.SameCoordinates,Original*%
%TF.FileFunction,Drillmap*%
%TF.FilePolarity,Positive*%
%FSLAX45Y45*%
G04 Gerber Fmt 4.5, Leading zero omitted, Abs format (unit mm)*
G04 Created by KiCad (PCBNEW 8.0.3) date 2024-07-22 19:56:25*
%MOMM*%
%LPD*%
G01*
G04 APERTURE LIST*
%ADD10C,0.050000*%
%ADD11C,0.200000*%
%ADD12C,0.100000*%
G04 APERTURE END LIST*
D10*
X13462000Y-7620000D02*
X16002000Y-7620000D01*
X16002000Y-9398000D01*
X13462000Y-9398000D01*
X13462000Y-7620000D01*
D11*
D12*
X14518672Y-9081652D02*
X14548672Y-9111652D01*
X14548672Y-9081652D02*
X14518672Y-9111652D01*
X14674175Y-9302870D02*
X14704175Y-9332870D01*
X14704175Y-9302870D02*
X14674175Y-9332870D01*
X14717000Y-8621000D02*
X14747000Y-8651000D01*
X14747000Y-8621000D02*
X14717000Y-8651000D01*
X14262100Y-8382000D02*
G75*
G02*
X14185900Y-8382000I-38100J0D01*
G01*
X14185900Y-8382000D02*
G75*
G02*
X14262100Y-8382000I38100J0D01*
G01*
X14262100Y-9144000D02*
G75*
G02*
X14185900Y-9144000I-38100J0D01*
G01*
X14185900Y-9144000D02*
G75*
G02*
X14262100Y-9144000I38100J0D01*
G01*
X15024100Y-8382000D02*
G75*
G02*
X14947900Y-8382000I-38100J0D01*
G01*
X14947900Y-8382000D02*
G75*
G02*
X15024100Y-8382000I38100J0D01*
G01*
X15024100Y-8890000D02*
G75*
G02*
X14947900Y-8890000I-38100J0D01*
G01*
X14947900Y-8890000D02*
G75*
G02*
X15024100Y-8890000I38100J0D01*
G01*
X15278100Y-8382000D02*
G75*
G02*
X15201900Y-8382000I-38100J0D01*
G01*
X15201900Y-8382000D02*
G75*
G02*
X15278100Y-8382000I38100J0D01*
G01*
X15278100Y-9144000D02*
G75*
G02*
X15201900Y-9144000I-38100J0D01*
G01*
X15201900Y-9144000D02*
G75*
G02*
X15278100Y-9144000I38100J0D01*
G01*
X13716000Y-8332000D02*
X13716000Y-8432000D01*
X13666000Y-8382000D02*
X13766000Y-8382000D01*
X13716000Y-8586000D02*
X13716000Y-8686000D01*
X13666000Y-8636000D02*
X13766000Y-8636000D01*
X13716000Y-8840000D02*
X13716000Y-8940000D01*
X13666000Y-8890000D02*
X13766000Y-8890000D01*
X14224000Y-7824000D02*
X14224000Y-7924000D01*
X14174000Y-7874000D02*
X14274000Y-7874000D01*
X14478000Y-7824000D02*
X14478000Y-7924000D01*
X14428000Y-7874000D02*
X14528000Y-7874000D01*
X14732000Y-7824000D02*
X14732000Y-7924000D01*
X14682000Y-7874000D02*
X14782000Y-7874000D01*
X14986000Y-7824000D02*
X14986000Y-7924000D01*
X14936000Y-7874000D02*
X15036000Y-7874000D01*
X15748000Y-8332000D02*
X15748000Y-8432000D01*
X15698000Y-8382000D02*
X15798000Y-8382000D01*
X15748000Y-8586000D02*
X15748000Y-8686000D01*
X15698000Y-8636000D02*
X15798000Y-8636000D01*
X15748000Y-8840000D02*
X15748000Y-8940000D01*
X15698000Y-8890000D02*
X15798000Y-8890000D01*
D11*
X13720277Y-9711984D02*
X13720277Y-9511984D01*
X13720277Y-9511984D02*
X13767896Y-9511984D01*
X13767896Y-9511984D02*
X13796467Y-9521508D01*
X13796467Y-9521508D02*
X13815515Y-9540555D01*
X13815515Y-9540555D02*
X13825039Y-9559603D01*
X13825039Y-9559603D02*
X13834562Y-9597698D01*
X13834562Y-9597698D02*
X13834562Y-9626270D01*
X13834562Y-9626270D02*
X13825039Y-9664365D01*
X13825039Y-9664365D02*
X13815515Y-9683412D01*
X13815515Y-9683412D02*
X13796467Y-9702460D01*
X13796467Y-9702460D02*
X13767896Y-9711984D01*
X13767896Y-9711984D02*
X13720277Y-9711984D01*
X13920277Y-9711984D02*
X13920277Y-9578650D01*
X13920277Y-9616746D02*
X13929801Y-9597698D01*
X13929801Y-9597698D02*
X13939324Y-9588174D01*
X13939324Y-9588174D02*
X13958372Y-9578650D01*
X13958372Y-9578650D02*
X13977420Y-9578650D01*
X14044086Y-9711984D02*
X14044086Y-9578650D01*
X14044086Y-9511984D02*
X14034562Y-9521508D01*
X14034562Y-9521508D02*
X14044086Y-9531031D01*
X14044086Y-9531031D02*
X14053610Y-9521508D01*
X14053610Y-9521508D02*
X14044086Y-9511984D01*
X14044086Y-9511984D02*
X14044086Y-9531031D01*
X14167896Y-9711984D02*
X14148848Y-9702460D01*
X14148848Y-9702460D02*
X14139324Y-9683412D01*
X14139324Y-9683412D02*
X14139324Y-9511984D01*
X14272658Y-9711984D02*
X14253610Y-9702460D01*
X14253610Y-9702460D02*
X14244086Y-9683412D01*
X14244086Y-9683412D02*
X14244086Y-9511984D01*
X14501229Y-9711984D02*
X14501229Y-9511984D01*
X14501229Y-9511984D02*
X14567896Y-9654841D01*
X14567896Y-9654841D02*
X14634562Y-9511984D01*
X14634562Y-9511984D02*
X14634562Y-9711984D01*
X14815515Y-9711984D02*
X14815515Y-9607222D01*
X14815515Y-9607222D02*
X14805991Y-9588174D01*
X14805991Y-9588174D02*
X14786943Y-9578650D01*
X14786943Y-9578650D02*
X14748848Y-9578650D01*
X14748848Y-9578650D02*
X14729801Y-9588174D01*
X14815515Y-9702460D02*
X14796467Y-9711984D01*
X14796467Y-9711984D02*
X14748848Y-9711984D01*
X14748848Y-9711984D02*
X14729801Y-9702460D01*
X14729801Y-9702460D02*
X14720277Y-9683412D01*
X14720277Y-9683412D02*
X14720277Y-9664365D01*
X14720277Y-9664365D02*
X14729801Y-9645317D01*
X14729801Y-9645317D02*
X14748848Y-9635793D01*
X14748848Y-9635793D02*
X14796467Y-9635793D01*
X14796467Y-9635793D02*
X14815515Y-9626270D01*
X14910753Y-9578650D02*
X14910753Y-9778650D01*
X14910753Y-9588174D02*
X14929801Y-9578650D01*
X14929801Y-9578650D02*
X14967896Y-9578650D01*
X14967896Y-9578650D02*
X14986943Y-9588174D01*
X14986943Y-9588174D02*
X14996467Y-9597698D01*
X14996467Y-9597698D02*
X15005991Y-9616746D01*
X15005991Y-9616746D02*
X15005991Y-9673889D01*
X15005991Y-9673889D02*
X14996467Y-9692936D01*
X14996467Y-9692936D02*
X14986943Y-9702460D01*
X14986943Y-9702460D02*
X14967896Y-9711984D01*
X14967896Y-9711984D02*
X14929801Y-9711984D01*
X14929801Y-9711984D02*
X14910753Y-9702460D01*
X15091705Y-9692936D02*
X15101229Y-9702460D01*
X15101229Y-9702460D02*
X15091705Y-9711984D01*
X15091705Y-9711984D02*
X15082182Y-9702460D01*
X15082182Y-9702460D02*
X15091705Y-9692936D01*
X15091705Y-9692936D02*
X15091705Y-9711984D01*
X15091705Y-9588174D02*
X15101229Y-9597698D01*
X15101229Y-9597698D02*
X15091705Y-9607222D01*
X15091705Y-9607222D02*
X15082182Y-9597698D01*
X15082182Y-9597698D02*
X15091705Y-9588174D01*
X15091705Y-9588174D02*
X15091705Y-9607222D01*
D12*
X13429500Y-10025500D02*
X13459500Y-10055500D01*
X13459500Y-10025500D02*
X13429500Y-10055500D01*
D11*
X13758372Y-9931984D02*
X13777420Y-9931984D01*
X13777420Y-9931984D02*
X13796467Y-9941508D01*
X13796467Y-9941508D02*
X13805991Y-9951031D01*
X13805991Y-9951031D02*
X13815515Y-9970079D01*
X13815515Y-9970079D02*
X13825039Y-10008174D01*
X13825039Y-10008174D02*
X13825039Y-10055793D01*
X13825039Y-10055793D02*
X13815515Y-10093889D01*
X13815515Y-10093889D02*
X13805991Y-10112936D01*
X13805991Y-10112936D02*
X13796467Y-10122460D01*
X13796467Y-10122460D02*
X13777420Y-10131984D01*
X13777420Y-10131984D02*
X13758372Y-10131984D01*
X13758372Y-10131984D02*
X13739324Y-10122460D01*
X13739324Y-10122460D02*
X13729801Y-10112936D01*
X13729801Y-10112936D02*
X13720277Y-10093889D01*
X13720277Y-10093889D02*
X13710753Y-10055793D01*
X13710753Y-10055793D02*
X13710753Y-10008174D01*
X13710753Y-10008174D02*
X13720277Y-9970079D01*
X13720277Y-9970079D02*
X13729801Y-9951031D01*
X13729801Y-9951031D02*
X13739324Y-9941508D01*
X13739324Y-9941508D02*
X13758372Y-9931984D01*
X13910753Y-10112936D02*
X13920277Y-10122460D01*
X13920277Y-10122460D02*
X13910753Y-10131984D01*
X13910753Y-10131984D02*
X13901229Y-10122460D01*
X13901229Y-10122460D02*
X13910753Y-10112936D01*
X13910753Y-10112936D02*
X13910753Y-10131984D01*
X13986943Y-9931984D02*
X14110753Y-9931984D01*
X14110753Y-9931984D02*
X14044086Y-10008174D01*
X14044086Y-10008174D02*
X14072658Y-10008174D01*
X14072658Y-10008174D02*
X14091705Y-10017698D01*
X14091705Y-10017698D02*
X14101229Y-10027222D01*
X14101229Y-10027222D02*
X14110753Y-10046270D01*
X14110753Y-10046270D02*
X14110753Y-10093889D01*
X14110753Y-10093889D02*
X14101229Y-10112936D01*
X14101229Y-10112936D02*
X14091705Y-10122460D01*
X14091705Y-10122460D02*
X14072658Y-10131984D01*
X14072658Y-10131984D02*
X14015515Y-10131984D01*
X14015515Y-10131984D02*
X13996467Y-10122460D01*
X13996467Y-10122460D02*
X13986943Y-10112936D01*
X14234562Y-9931984D02*
X14253610Y-9931984D01*
X14253610Y-9931984D02*
X14272658Y-9941508D01*
X14272658Y-9941508D02*
X14282182Y-9951031D01*
X14282182Y-9951031D02*
X14291705Y-9970079D01*
X14291705Y-9970079D02*
X14301229Y-10008174D01*
X14301229Y-10008174D02*
X14301229Y-10055793D01*
X14301229Y-10055793D02*
X14291705Y-10093889D01*
X14291705Y-10093889D02*
X14282182Y-10112936D01*
X14282182Y-10112936D02*
X14272658Y-10122460D01*
X14272658Y-10122460D02*
X14253610Y-10131984D01*
X14253610Y-10131984D02*
X14234562Y-10131984D01*
X14234562Y-10131984D02*
X14215515Y-10122460D01*
X14215515Y-10122460D02*
X14205991Y-10112936D01*
X14205991Y-10112936D02*
X14196467Y-10093889D01*
X14196467Y-10093889D02*
X14186943Y-10055793D01*
X14186943Y-10055793D02*
X14186943Y-10008174D01*
X14186943Y-10008174D02*
X14196467Y-9970079D01*
X14196467Y-9970079D02*
X14205991Y-9951031D01*
X14205991Y-9951031D02*
X14215515Y-9941508D01*
X14215515Y-9941508D02*
X14234562Y-9931984D01*
X14425039Y-9931984D02*
X14444086Y-9931984D01*
X14444086Y-9931984D02*
X14463134Y-9941508D01*
X14463134Y-9941508D02*
X14472658Y-9951031D01*
X14472658Y-9951031D02*
X14482182Y-9970079D01*
X14482182Y-9970079D02*
X14491705Y-10008174D01*
X14491705Y-10008174D02*
X14491705Y-10055793D01*
X14491705Y-10055793D02*
X14482182Y-10093889D01*
X14482182Y-10093889D02*
X14472658Y-10112936D01*
X14472658Y-10112936D02*
X14463134Y-10122460D01*
X14463134Y-10122460D02*
X14444086Y-10131984D01*
X14444086Y-10131984D02*
X14425039Y-10131984D01*
X14425039Y-10131984D02*
X14405991Y-10122460D01*
X14405991Y-10122460D02*
X14396467Y-10112936D01*
X14396467Y-10112936D02*
X14386943Y-10093889D01*
X14386943Y-10093889D02*
X14377420Y-10055793D01*
X14377420Y-10055793D02*
X14377420Y-10008174D01*
X14377420Y-10008174D02*
X14386943Y-9970079D01*
X14386943Y-9970079D02*
X14396467Y-9951031D01*
X14396467Y-9951031D02*
X14405991Y-9941508D01*
X14405991Y-9941508D02*
X14425039Y-9931984D01*
X14577420Y-10131984D02*
X14577420Y-9998650D01*
X14577420Y-10017698D02*
X14586943Y-10008174D01*
X14586943Y-10008174D02*
X14605991Y-9998650D01*
X14605991Y-9998650D02*
X14634563Y-9998650D01*
X14634563Y-9998650D02*
X14653610Y-10008174D01*
X14653610Y-10008174D02*
X14663134Y-10027222D01*
X14663134Y-10027222D02*
X14663134Y-10131984D01*
X14663134Y-10027222D02*
X14672658Y-10008174D01*
X14672658Y-10008174D02*
X14691705Y-9998650D01*
X14691705Y-9998650D02*
X14720277Y-9998650D01*
X14720277Y-9998650D02*
X14739324Y-10008174D01*
X14739324Y-10008174D02*
X14748848Y-10027222D01*
X14748848Y-10027222D02*
X14748848Y-10131984D01*
X14844086Y-10131984D02*
X14844086Y-9998650D01*
X14844086Y-10017698D02*
X14853610Y-10008174D01*
X14853610Y-10008174D02*
X14872658Y-9998650D01*
X14872658Y-9998650D02*
X14901229Y-9998650D01*
X14901229Y-9998650D02*
X14920277Y-10008174D01*
X14920277Y-10008174D02*
X14929801Y-10027222D01*
X14929801Y-10027222D02*
X14929801Y-10131984D01*
X14929801Y-10027222D02*
X14939324Y-10008174D01*
X14939324Y-10008174D02*
X14958372Y-9998650D01*
X14958372Y-9998650D02*
X14986943Y-9998650D01*
X14986943Y-9998650D02*
X15005991Y-10008174D01*
X15005991Y-10008174D02*
X15015515Y-10027222D01*
X15015515Y-10027222D02*
X15015515Y-10131984D01*
X15405991Y-9922460D02*
X15234563Y-10179603D01*
X15663134Y-9931984D02*
X15682182Y-9931984D01*
X15682182Y-9931984D02*
X15701229Y-9941508D01*
X15701229Y-9941508D02*
X15710753Y-9951031D01*
X15710753Y-9951031D02*
X15720277Y-9970079D01*
X15720277Y-9970079D02*
X15729801Y-10008174D01*
X15729801Y-10008174D02*
X15729801Y-10055793D01*
X15729801Y-10055793D02*
X15720277Y-10093889D01*
X15720277Y-10093889D02*
X15710753Y-10112936D01*
X15710753Y-10112936D02*
X15701229Y-10122460D01*
X15701229Y-10122460D02*
X15682182Y-10131984D01*
X15682182Y-10131984D02*
X15663134Y-10131984D01*
X15663134Y-10131984D02*
X15644086Y-10122460D01*
X15644086Y-10122460D02*
X15634563Y-10112936D01*
X15634563Y-10112936D02*
X15625039Y-10093889D01*
X15625039Y-10093889D02*
X15615515Y-10055793D01*
X15615515Y-10055793D02*
X15615515Y-10008174D01*
X15615515Y-10008174D02*
X15625039Y-9970079D01*
X15625039Y-9970079D02*
X15634563Y-9951031D01*
X15634563Y-9951031D02*
X15644086Y-9941508D01*
X15644086Y-9941508D02*
X15663134Y-9931984D01*
X15815515Y-10112936D02*
X15825039Y-10122460D01*
X15825039Y-10122460D02*
X15815515Y-10131984D01*
X15815515Y-10131984D02*
X15805991Y-10122460D01*
X15805991Y-10122460D02*
X15815515Y-10112936D01*
X15815515Y-10112936D02*
X15815515Y-10131984D01*
X15948848Y-9931984D02*
X15967896Y-9931984D01*
X15967896Y-9931984D02*
X15986944Y-9941508D01*
X15986944Y-9941508D02*
X15996467Y-9951031D01*
X15996467Y-9951031D02*
X16005991Y-9970079D01*
X16005991Y-9970079D02*
X16015515Y-10008174D01*
X16015515Y-10008174D02*
X16015515Y-10055793D01*
X16015515Y-10055793D02*
X16005991Y-10093889D01*
X16005991Y-10093889D02*
X15996467Y-10112936D01*
X15996467Y-10112936D02*
X15986944Y-10122460D01*
X15986944Y-10122460D02*
X15967896Y-10131984D01*
X15967896Y-10131984D02*
X15948848Y-10131984D01*
X15948848Y-10131984D02*
X15929801Y-10122460D01*
X15929801Y-10122460D02*
X15920277Y-10112936D01*
X15920277Y-10112936D02*
X15910753Y-10093889D01*
X15910753Y-10093889D02*
X15901229Y-10055793D01*
X15901229Y-10055793D02*
X15901229Y-10008174D01*
X15901229Y-10008174D02*
X15910753Y-9970079D01*
X15910753Y-9970079D02*
X15920277Y-9951031D01*
X15920277Y-9951031D02*
X15929801Y-9941508D01*
X15929801Y-9941508D02*
X15948848Y-9931984D01*
X16205991Y-10131984D02*
X16091706Y-10131984D01*
X16148848Y-10131984D02*
X16148848Y-9931984D01*
X16148848Y-9931984D02*
X16129801Y-9960555D01*
X16129801Y-9960555D02*
X16110753Y-9979603D01*
X16110753Y-9979603D02*
X16091706Y-9989127D01*
X16396467Y-10131984D02*
X16282182Y-10131984D01*
X16339325Y-10131984D02*
X16339325Y-9931984D01*
X16339325Y-9931984D02*
X16320277Y-9960555D01*
X16320277Y-9960555D02*
X16301229Y-9979603D01*
X16301229Y-9979603D02*
X16282182Y-9989127D01*
X16510753Y-10017698D02*
X16491706Y-10008174D01*
X16491706Y-10008174D02*
X16482182Y-9998650D01*
X16482182Y-9998650D02*
X16472658Y-9979603D01*
X16472658Y-9979603D02*
X16472658Y-9970079D01*
X16472658Y-9970079D02*
X16482182Y-9951031D01*
X16482182Y-9951031D02*
X16491706Y-9941508D01*
X16491706Y-9941508D02*
X16510753Y-9931984D01*
X16510753Y-9931984D02*
X16548848Y-9931984D01*
X16548848Y-9931984D02*
X16567896Y-9941508D01*
X16567896Y-9941508D02*
X16577420Y-9951031D01*
X16577420Y-9951031D02*
X16586944Y-9970079D01*
X16586944Y-9970079D02*
X16586944Y-9979603D01*
X16586944Y-9979603D02*
X16577420Y-9998650D01*
X16577420Y-9998650D02*
X16567896Y-10008174D01*
X16567896Y-10008174D02*
X16548848Y-10017698D01*
X16548848Y-10017698D02*
X16510753Y-10017698D01*
X16510753Y-10017698D02*
X16491706Y-10027222D01*
X16491706Y-10027222D02*
X16482182Y-10036746D01*
X16482182Y-10036746D02*
X16472658Y-10055793D01*
X16472658Y-10055793D02*
X16472658Y-10093889D01*
X16472658Y-10093889D02*
X16482182Y-10112936D01*
X16482182Y-10112936D02*
X16491706Y-10122460D01*
X16491706Y-10122460D02*
X16510753Y-10131984D01*
X16510753Y-10131984D02*
X16548848Y-10131984D01*
X16548848Y-10131984D02*
X16567896Y-10122460D01*
X16567896Y-10122460D02*
X16577420Y-10112936D01*
X16577420Y-10112936D02*
X16586944Y-10093889D01*
X16586944Y-10093889D02*
X16586944Y-10055793D01*
X16586944Y-10055793D02*
X16577420Y-10036746D01*
X16577420Y-10036746D02*
X16567896Y-10027222D01*
X16567896Y-10027222D02*
X16548848Y-10017698D01*
X16663134Y-9931984D02*
X16663134Y-9970079D01*
X16739325Y-9931984D02*
X16739325Y-9970079D01*
X17034563Y-10208174D02*
X17025039Y-10198650D01*
X17025039Y-10198650D02*
X17005991Y-10170079D01*
X17005991Y-10170079D02*
X16996468Y-10151031D01*
X16996468Y-10151031D02*
X16986944Y-10122460D01*
X16986944Y-10122460D02*
X16977420Y-10074841D01*
X16977420Y-10074841D02*
X16977420Y-10036746D01*
X16977420Y-10036746D02*
X16986944Y-9989127D01*
X16986944Y-9989127D02*
X16996468Y-9960555D01*
X16996468Y-9960555D02*
X17005991Y-9941508D01*
X17005991Y-9941508D02*
X17025039Y-9912936D01*
X17025039Y-9912936D02*
X17034563Y-9903412D01*
X17091706Y-9931984D02*
X17215515Y-9931984D01*
X17215515Y-9931984D02*
X17148849Y-10008174D01*
X17148849Y-10008174D02*
X17177420Y-10008174D01*
X17177420Y-10008174D02*
X17196468Y-10017698D01*
X17196468Y-10017698D02*
X17205991Y-10027222D01*
X17205991Y-10027222D02*
X17215515Y-10046270D01*
X17215515Y-10046270D02*
X17215515Y-10093889D01*
X17215515Y-10093889D02*
X17205991Y-10112936D01*
X17205991Y-10112936D02*
X17196468Y-10122460D01*
X17196468Y-10122460D02*
X17177420Y-10131984D01*
X17177420Y-10131984D02*
X17120277Y-10131984D01*
X17120277Y-10131984D02*
X17101230Y-10122460D01*
X17101230Y-10122460D02*
X17091706Y-10112936D01*
X17453611Y-10131984D02*
X17453611Y-9931984D01*
X17539325Y-10131984D02*
X17539325Y-10027222D01*
X17539325Y-10027222D02*
X17529801Y-10008174D01*
X17529801Y-10008174D02*
X17510753Y-9998650D01*
X17510753Y-9998650D02*
X17482182Y-9998650D01*
X17482182Y-9998650D02*
X17463134Y-10008174D01*
X17463134Y-10008174D02*
X17453611Y-10017698D01*
X17663134Y-10131984D02*
X17644087Y-10122460D01*
X17644087Y-10122460D02*
X17634563Y-10112936D01*
X17634563Y-10112936D02*
X17625039Y-10093889D01*
X17625039Y-10093889D02*
X17625039Y-10036746D01*
X17625039Y-10036746D02*
X17634563Y-10017698D01*
X17634563Y-10017698D02*
X17644087Y-10008174D01*
X17644087Y-10008174D02*
X17663134Y-9998650D01*
X17663134Y-9998650D02*
X17691706Y-9998650D01*
X17691706Y-9998650D02*
X17710753Y-10008174D01*
X17710753Y-10008174D02*
X17720277Y-10017698D01*
X17720277Y-10017698D02*
X17729801Y-10036746D01*
X17729801Y-10036746D02*
X17729801Y-10093889D01*
X17729801Y-10093889D02*
X17720277Y-10112936D01*
X17720277Y-10112936D02*
X17710753Y-10122460D01*
X17710753Y-10122460D02*
X17691706Y-10131984D01*
X17691706Y-10131984D02*
X17663134Y-10131984D01*
X17844087Y-10131984D02*
X17825039Y-10122460D01*
X17825039Y-10122460D02*
X17815515Y-10103412D01*
X17815515Y-10103412D02*
X17815515Y-9931984D01*
X17996468Y-10122460D02*
X17977420Y-10131984D01*
X17977420Y-10131984D02*
X17939325Y-10131984D01*
X17939325Y-10131984D02*
X17920277Y-10122460D01*
X17920277Y-10122460D02*
X17910753Y-10103412D01*
X17910753Y-10103412D02*
X17910753Y-10027222D01*
X17910753Y-10027222D02*
X17920277Y-10008174D01*
X17920277Y-10008174D02*
X17939325Y-9998650D01*
X17939325Y-9998650D02*
X17977420Y-9998650D01*
X17977420Y-9998650D02*
X17996468Y-10008174D01*
X17996468Y-10008174D02*
X18005992Y-10027222D01*
X18005992Y-10027222D02*
X18005992Y-10046270D01*
X18005992Y-10046270D02*
X17910753Y-10065317D01*
X18082182Y-10122460D02*
X18101230Y-10131984D01*
X18101230Y-10131984D02*
X18139325Y-10131984D01*
X18139325Y-10131984D02*
X18158373Y-10122460D01*
X18158373Y-10122460D02*
X18167896Y-10103412D01*
X18167896Y-10103412D02*
X18167896Y-10093889D01*
X18167896Y-10093889D02*
X18158373Y-10074841D01*
X18158373Y-10074841D02*
X18139325Y-10065317D01*
X18139325Y-10065317D02*
X18110753Y-10065317D01*
X18110753Y-10065317D02*
X18091706Y-10055793D01*
X18091706Y-10055793D02*
X18082182Y-10036746D01*
X18082182Y-10036746D02*
X18082182Y-10027222D01*
X18082182Y-10027222D02*
X18091706Y-10008174D01*
X18091706Y-10008174D02*
X18110753Y-9998650D01*
X18110753Y-9998650D02*
X18139325Y-9998650D01*
X18139325Y-9998650D02*
X18158373Y-10008174D01*
X18234563Y-10208174D02*
X18244087Y-10198650D01*
X18244087Y-10198650D02*
X18263134Y-10170079D01*
X18263134Y-10170079D02*
X18272658Y-10151031D01*
X18272658Y-10151031D02*
X18282182Y-10122460D01*
X18282182Y-10122460D02*
X18291706Y-10074841D01*
X18291706Y-10074841D02*
X18291706Y-10036746D01*
X18291706Y-10036746D02*
X18282182Y-9989127D01*
X18282182Y-9989127D02*
X18272658Y-9960555D01*
X18272658Y-9960555D02*
X18263134Y-9941508D01*
X18263134Y-9941508D02*
X18244087Y-9912936D01*
X18244087Y-9912936D02*
X18234563Y-9903412D01*
D12*
X13459500Y-10304500D02*
G75*
G02*
X13383300Y-10304500I-38100J0D01*
G01*
X13383300Y-10304500D02*
G75*
G02*
X13459500Y-10304500I38100J0D01*
G01*
D11*
X13758372Y-10195984D02*
X13777420Y-10195984D01*
X13777420Y-10195984D02*
X13796467Y-10205508D01*
X13796467Y-10205508D02*
X13805991Y-10215031D01*
X13805991Y-10215031D02*
X13815515Y-10234079D01*
X13815515Y-10234079D02*
X13825039Y-10272174D01*
X13825039Y-10272174D02*
X13825039Y-10319793D01*
X13825039Y-10319793D02*
X13815515Y-10357889D01*
X13815515Y-10357889D02*
X13805991Y-10376936D01*
X13805991Y-10376936D02*
X13796467Y-10386460D01*
X13796467Y-10386460D02*
X13777420Y-10395984D01*
X13777420Y-10395984D02*
X13758372Y-10395984D01*
X13758372Y-10395984D02*
X13739324Y-10386460D01*
X13739324Y-10386460D02*
X13729801Y-10376936D01*
X13729801Y-10376936D02*
X13720277Y-10357889D01*
X13720277Y-10357889D02*
X13710753Y-10319793D01*
X13710753Y-10319793D02*
X13710753Y-10272174D01*
X13710753Y-10272174D02*
X13720277Y-10234079D01*
X13720277Y-10234079D02*
X13729801Y-10215031D01*
X13729801Y-10215031D02*
X13739324Y-10205508D01*
X13739324Y-10205508D02*
X13758372Y-10195984D01*
X13910753Y-10376936D02*
X13920277Y-10386460D01*
X13920277Y-10386460D02*
X13910753Y-10395984D01*
X13910753Y-10395984D02*
X13901229Y-10386460D01*
X13901229Y-10386460D02*
X13910753Y-10376936D01*
X13910753Y-10376936D02*
X13910753Y-10395984D01*
X13986943Y-10195984D02*
X14120277Y-10195984D01*
X14120277Y-10195984D02*
X14034562Y-10395984D01*
X14282182Y-10195984D02*
X14244086Y-10195984D01*
X14244086Y-10195984D02*
X14225039Y-10205508D01*
X14225039Y-10205508D02*
X14215515Y-10215031D01*
X14215515Y-10215031D02*
X14196467Y-10243603D01*
X14196467Y-10243603D02*
X14186943Y-10281698D01*
X14186943Y-10281698D02*
X14186943Y-10357889D01*
X14186943Y-10357889D02*
X14196467Y-10376936D01*
X14196467Y-10376936D02*
X14205991Y-10386460D01*
X14205991Y-10386460D02*
X14225039Y-10395984D01*
X14225039Y-10395984D02*
X14263134Y-10395984D01*
X14263134Y-10395984D02*
X14282182Y-10386460D01*
X14282182Y-10386460D02*
X14291705Y-10376936D01*
X14291705Y-10376936D02*
X14301229Y-10357889D01*
X14301229Y-10357889D02*
X14301229Y-10310270D01*
X14301229Y-10310270D02*
X14291705Y-10291222D01*
X14291705Y-10291222D02*
X14282182Y-10281698D01*
X14282182Y-10281698D02*
X14263134Y-10272174D01*
X14263134Y-10272174D02*
X14225039Y-10272174D01*
X14225039Y-10272174D02*
X14205991Y-10281698D01*
X14205991Y-10281698D02*
X14196467Y-10291222D01*
X14196467Y-10291222D02*
X14186943Y-10310270D01*
X14377420Y-10215031D02*
X14386943Y-10205508D01*
X14386943Y-10205508D02*
X14405991Y-10195984D01*
X14405991Y-10195984D02*
X14453610Y-10195984D01*
X14453610Y-10195984D02*
X14472658Y-10205508D01*
X14472658Y-10205508D02*
X14482182Y-10215031D01*
X14482182Y-10215031D02*
X14491705Y-10234079D01*
X14491705Y-10234079D02*
X14491705Y-10253127D01*
X14491705Y-10253127D02*
X14482182Y-10281698D01*
X14482182Y-10281698D02*
X14367896Y-10395984D01*
X14367896Y-10395984D02*
X14491705Y-10395984D01*
X14577420Y-10395984D02*
X14577420Y-10262650D01*
X14577420Y-10281698D02*
X14586943Y-10272174D01*
X14586943Y-10272174D02*
X14605991Y-10262650D01*
X14605991Y-10262650D02*
X14634563Y-10262650D01*
X14634563Y-10262650D02*
X14653610Y-10272174D01*
X14653610Y-10272174D02*
X14663134Y-10291222D01*
X14663134Y-10291222D02*
X14663134Y-10395984D01*
X14663134Y-10291222D02*
X14672658Y-10272174D01*
X14672658Y-10272174D02*
X14691705Y-10262650D01*
X14691705Y-10262650D02*
X14720277Y-10262650D01*
X14720277Y-10262650D02*
X14739324Y-10272174D01*
X14739324Y-10272174D02*
X14748848Y-10291222D01*
X14748848Y-10291222D02*
X14748848Y-10395984D01*
X14844086Y-10395984D02*
X14844086Y-10262650D01*
X14844086Y-10281698D02*
X14853610Y-10272174D01*
X14853610Y-10272174D02*
X14872658Y-10262650D01*
X14872658Y-10262650D02*
X14901229Y-10262650D01*
X14901229Y-10262650D02*
X14920277Y-10272174D01*
X14920277Y-10272174D02*
X14929801Y-10291222D01*
X14929801Y-10291222D02*
X14929801Y-10395984D01*
X14929801Y-10291222D02*
X14939324Y-10272174D01*
X14939324Y-10272174D02*
X14958372Y-10262650D01*
X14958372Y-10262650D02*
X14986943Y-10262650D01*
X14986943Y-10262650D02*
X15005991Y-10272174D01*
X15005991Y-10272174D02*
X15015515Y-10291222D01*
X15015515Y-10291222D02*
X15015515Y-10395984D01*
X15405991Y-10186460D02*
X15234563Y-10443603D01*
X15663134Y-10195984D02*
X15682182Y-10195984D01*
X15682182Y-10195984D02*
X15701229Y-10205508D01*
X15701229Y-10205508D02*
X15710753Y-10215031D01*
X15710753Y-10215031D02*
X15720277Y-10234079D01*
X15720277Y-10234079D02*
X15729801Y-10272174D01*
X15729801Y-10272174D02*
X15729801Y-10319793D01*
X15729801Y-10319793D02*
X15720277Y-10357889D01*
X15720277Y-10357889D02*
X15710753Y-10376936D01*
X15710753Y-10376936D02*
X15701229Y-10386460D01*
X15701229Y-10386460D02*
X15682182Y-10395984D01*
X15682182Y-10395984D02*
X15663134Y-10395984D01*
X15663134Y-10395984D02*
X15644086Y-10386460D01*
X15644086Y-10386460D02*
X15634563Y-10376936D01*
X15634563Y-10376936D02*
X15625039Y-10357889D01*
X15625039Y-10357889D02*
X15615515Y-10319793D01*
X15615515Y-10319793D02*
X15615515Y-10272174D01*
X15615515Y-10272174D02*
X15625039Y-10234079D01*
X15625039Y-10234079D02*
X15634563Y-10215031D01*
X15634563Y-10215031D02*
X15644086Y-10205508D01*
X15644086Y-10205508D02*
X15663134Y-10195984D01*
X15815515Y-10376936D02*
X15825039Y-10386460D01*
X15825039Y-10386460D02*
X15815515Y-10395984D01*
X15815515Y-10395984D02*
X15805991Y-10386460D01*
X15805991Y-10386460D02*
X15815515Y-10376936D01*
X15815515Y-10376936D02*
X15815515Y-10395984D01*
X15948848Y-10195984D02*
X15967896Y-10195984D01*
X15967896Y-10195984D02*
X15986944Y-10205508D01*
X15986944Y-10205508D02*
X15996467Y-10215031D01*
X15996467Y-10215031D02*
X16005991Y-10234079D01*
X16005991Y-10234079D02*
X16015515Y-10272174D01*
X16015515Y-10272174D02*
X16015515Y-10319793D01*
X16015515Y-10319793D02*
X16005991Y-10357889D01*
X16005991Y-10357889D02*
X15996467Y-10376936D01*
X15996467Y-10376936D02*
X15986944Y-10386460D01*
X15986944Y-10386460D02*
X15967896Y-10395984D01*
X15967896Y-10395984D02*
X15948848Y-10395984D01*
X15948848Y-10395984D02*
X15929801Y-10386460D01*
X15929801Y-10386460D02*
X15920277Y-10376936D01*
X15920277Y-10376936D02*
X15910753Y-10357889D01*
X15910753Y-10357889D02*
X15901229Y-10319793D01*
X15901229Y-10319793D02*
X15901229Y-10272174D01*
X15901229Y-10272174D02*
X15910753Y-10234079D01*
X15910753Y-10234079D02*
X15920277Y-10215031D01*
X15920277Y-10215031D02*
X15929801Y-10205508D01*
X15929801Y-10205508D02*
X15948848Y-10195984D01*
X16082182Y-10195984D02*
X16205991Y-10195984D01*
X16205991Y-10195984D02*
X16139325Y-10272174D01*
X16139325Y-10272174D02*
X16167896Y-10272174D01*
X16167896Y-10272174D02*
X16186944Y-10281698D01*
X16186944Y-10281698D02*
X16196467Y-10291222D01*
X16196467Y-10291222D02*
X16205991Y-10310270D01*
X16205991Y-10310270D02*
X16205991Y-10357889D01*
X16205991Y-10357889D02*
X16196467Y-10376936D01*
X16196467Y-10376936D02*
X16186944Y-10386460D01*
X16186944Y-10386460D02*
X16167896Y-10395984D01*
X16167896Y-10395984D02*
X16110753Y-10395984D01*
X16110753Y-10395984D02*
X16091706Y-10386460D01*
X16091706Y-10386460D02*
X16082182Y-10376936D01*
X16329801Y-10195984D02*
X16348848Y-10195984D01*
X16348848Y-10195984D02*
X16367896Y-10205508D01*
X16367896Y-10205508D02*
X16377420Y-10215031D01*
X16377420Y-10215031D02*
X16386944Y-10234079D01*
X16386944Y-10234079D02*
X16396467Y-10272174D01*
X16396467Y-10272174D02*
X16396467Y-10319793D01*
X16396467Y-10319793D02*
X16386944Y-10357889D01*
X16386944Y-10357889D02*
X16377420Y-10376936D01*
X16377420Y-10376936D02*
X16367896Y-10386460D01*
X16367896Y-10386460D02*
X16348848Y-10395984D01*
X16348848Y-10395984D02*
X16329801Y-10395984D01*
X16329801Y-10395984D02*
X16310753Y-10386460D01*
X16310753Y-10386460D02*
X16301229Y-10376936D01*
X16301229Y-10376936D02*
X16291706Y-10357889D01*
X16291706Y-10357889D02*
X16282182Y-10319793D01*
X16282182Y-10319793D02*
X16282182Y-10272174D01*
X16282182Y-10272174D02*
X16291706Y-10234079D01*
X16291706Y-10234079D02*
X16301229Y-10215031D01*
X16301229Y-10215031D02*
X16310753Y-10205508D01*
X16310753Y-10205508D02*
X16329801Y-10195984D01*
X16520277Y-10195984D02*
X16539325Y-10195984D01*
X16539325Y-10195984D02*
X16558372Y-10205508D01*
X16558372Y-10205508D02*
X16567896Y-10215031D01*
X16567896Y-10215031D02*
X16577420Y-10234079D01*
X16577420Y-10234079D02*
X16586944Y-10272174D01*
X16586944Y-10272174D02*
X16586944Y-10319793D01*
X16586944Y-10319793D02*
X16577420Y-10357889D01*
X16577420Y-10357889D02*
X16567896Y-10376936D01*
X16567896Y-10376936D02*
X16558372Y-10386460D01*
X16558372Y-10386460D02*
X16539325Y-10395984D01*
X16539325Y-10395984D02*
X16520277Y-10395984D01*
X16520277Y-10395984D02*
X16501229Y-10386460D01*
X16501229Y-10386460D02*
X16491706Y-10376936D01*
X16491706Y-10376936D02*
X16482182Y-10357889D01*
X16482182Y-10357889D02*
X16472658Y-10319793D01*
X16472658Y-10319793D02*
X16472658Y-10272174D01*
X16472658Y-10272174D02*
X16482182Y-10234079D01*
X16482182Y-10234079D02*
X16491706Y-10215031D01*
X16491706Y-10215031D02*
X16501229Y-10205508D01*
X16501229Y-10205508D02*
X16520277Y-10195984D01*
X16663134Y-10195984D02*
X16663134Y-10234079D01*
X16739325Y-10195984D02*
X16739325Y-10234079D01*
X17034563Y-10472174D02*
X17025039Y-10462650D01*
X17025039Y-10462650D02*
X17005991Y-10434079D01*
X17005991Y-10434079D02*
X16996468Y-10415031D01*
X16996468Y-10415031D02*
X16986944Y-10386460D01*
X16986944Y-10386460D02*
X16977420Y-10338841D01*
X16977420Y-10338841D02*
X16977420Y-10300746D01*
X16977420Y-10300746D02*
X16986944Y-10253127D01*
X16986944Y-10253127D02*
X16996468Y-10224555D01*
X16996468Y-10224555D02*
X17005991Y-10205508D01*
X17005991Y-10205508D02*
X17025039Y-10176936D01*
X17025039Y-10176936D02*
X17034563Y-10167412D01*
X17196468Y-10195984D02*
X17158372Y-10195984D01*
X17158372Y-10195984D02*
X17139325Y-10205508D01*
X17139325Y-10205508D02*
X17129801Y-10215031D01*
X17129801Y-10215031D02*
X17110753Y-10243603D01*
X17110753Y-10243603D02*
X17101230Y-10281698D01*
X17101230Y-10281698D02*
X17101230Y-10357889D01*
X17101230Y-10357889D02*
X17110753Y-10376936D01*
X17110753Y-10376936D02*
X17120277Y-10386460D01*
X17120277Y-10386460D02*
X17139325Y-10395984D01*
X17139325Y-10395984D02*
X17177420Y-10395984D01*
X17177420Y-10395984D02*
X17196468Y-10386460D01*
X17196468Y-10386460D02*
X17205991Y-10376936D01*
X17205991Y-10376936D02*
X17215515Y-10357889D01*
X17215515Y-10357889D02*
X17215515Y-10310270D01*
X17215515Y-10310270D02*
X17205991Y-10291222D01*
X17205991Y-10291222D02*
X17196468Y-10281698D01*
X17196468Y-10281698D02*
X17177420Y-10272174D01*
X17177420Y-10272174D02*
X17139325Y-10272174D01*
X17139325Y-10272174D02*
X17120277Y-10281698D01*
X17120277Y-10281698D02*
X17110753Y-10291222D01*
X17110753Y-10291222D02*
X17101230Y-10310270D01*
X17453611Y-10395984D02*
X17453611Y-10195984D01*
X17539325Y-10395984D02*
X17539325Y-10291222D01*
X17539325Y-10291222D02*
X17529801Y-10272174D01*
X17529801Y-10272174D02*
X17510753Y-10262650D01*
X17510753Y-10262650D02*
X17482182Y-10262650D01*
X17482182Y-10262650D02*
X17463134Y-10272174D01*
X17463134Y-10272174D02*
X17453611Y-10281698D01*
X17663134Y-10395984D02*
X17644087Y-10386460D01*
X17644087Y-10386460D02*
X17634563Y-10376936D01*
X17634563Y-10376936D02*
X17625039Y-10357889D01*
X17625039Y-10357889D02*
X17625039Y-10300746D01*
X17625039Y-10300746D02*
X17634563Y-10281698D01*
X17634563Y-10281698D02*
X17644087Y-10272174D01*
X17644087Y-10272174D02*
X17663134Y-10262650D01*
X17663134Y-10262650D02*
X17691706Y-10262650D01*
X17691706Y-10262650D02*
X17710753Y-10272174D01*
X17710753Y-10272174D02*
X17720277Y-10281698D01*
X17720277Y-10281698D02*
X17729801Y-10300746D01*
X17729801Y-10300746D02*
X17729801Y-10357889D01*
X17729801Y-10357889D02*
X17720277Y-10376936D01*
X17720277Y-10376936D02*
X17710753Y-10386460D01*
X17710753Y-10386460D02*
X17691706Y-10395984D01*
X17691706Y-10395984D02*
X17663134Y-10395984D01*
X17844087Y-10395984D02*
X17825039Y-10386460D01*
X17825039Y-10386460D02*
X17815515Y-10367412D01*
X17815515Y-10367412D02*
X17815515Y-10195984D01*
X17996468Y-10386460D02*
X17977420Y-10395984D01*
X17977420Y-10395984D02*
X17939325Y-10395984D01*
X17939325Y-10395984D02*
X17920277Y-10386460D01*
X17920277Y-10386460D02*
X17910753Y-10367412D01*
X17910753Y-10367412D02*
X17910753Y-10291222D01*
X17910753Y-10291222D02*
X17920277Y-10272174D01*
X17920277Y-10272174D02*
X17939325Y-10262650D01*
X17939325Y-10262650D02*
X17977420Y-10262650D01*
X17977420Y-10262650D02*
X17996468Y-10272174D01*
X17996468Y-10272174D02*
X18005992Y-10291222D01*
X18005992Y-10291222D02*
X18005992Y-10310270D01*
X18005992Y-10310270D02*
X17910753Y-10329317D01*
X18082182Y-10386460D02*
X18101230Y-10395984D01*
X18101230Y-10395984D02*
X18139325Y-10395984D01*
X18139325Y-10395984D02*
X18158373Y-10386460D01*
X18158373Y-10386460D02*
X18167896Y-10367412D01*
X18167896Y-10367412D02*
X18167896Y-10357889D01*
X18167896Y-10357889D02*
X18158373Y-10338841D01*
X18158373Y-10338841D02*
X18139325Y-10329317D01*
X18139325Y-10329317D02*
X18110753Y-10329317D01*
X18110753Y-10329317D02*
X18091706Y-10319793D01*
X18091706Y-10319793D02*
X18082182Y-10300746D01*
X18082182Y-10300746D02*
X18082182Y-10291222D01*
X18082182Y-10291222D02*
X18091706Y-10272174D01*
X18091706Y-10272174D02*
X18110753Y-10262650D01*
X18110753Y-10262650D02*
X18139325Y-10262650D01*
X18139325Y-10262650D02*
X18158373Y-10272174D01*
X18234563Y-10472174D02*
X18244087Y-10462650D01*
X18244087Y-10462650D02*
X18263134Y-10434079D01*
X18263134Y-10434079D02*
X18272658Y-10415031D01*
X18272658Y-10415031D02*
X18282182Y-10386460D01*
X18282182Y-10386460D02*
X18291706Y-10338841D01*
X18291706Y-10338841D02*
X18291706Y-10300746D01*
X18291706Y-10300746D02*
X18282182Y-10253127D01*
X18282182Y-10253127D02*
X18272658Y-10224555D01*
X18272658Y-10224555D02*
X18263134Y-10205508D01*
X18263134Y-10205508D02*
X18244087Y-10176936D01*
X18244087Y-10176936D02*
X18234563Y-10167412D01*
D12*
X13409500Y-10518500D02*
X13409500Y-10618500D01*
X13359500Y-10568500D02*
X13459500Y-10568500D01*
D11*
X13825039Y-10659984D02*
X13710753Y-10659984D01*
X13767896Y-10659984D02*
X13767896Y-10459984D01*
X13767896Y-10459984D02*
X13748848Y-10488555D01*
X13748848Y-10488555D02*
X13729801Y-10507603D01*
X13729801Y-10507603D02*
X13710753Y-10517127D01*
X13910753Y-10640936D02*
X13920277Y-10650460D01*
X13920277Y-10650460D02*
X13910753Y-10659984D01*
X13910753Y-10659984D02*
X13901229Y-10650460D01*
X13901229Y-10650460D02*
X13910753Y-10640936D01*
X13910753Y-10640936D02*
X13910753Y-10659984D01*
X14044086Y-10459984D02*
X14063134Y-10459984D01*
X14063134Y-10459984D02*
X14082182Y-10469508D01*
X14082182Y-10469508D02*
X14091705Y-10479031D01*
X14091705Y-10479031D02*
X14101229Y-10498079D01*
X14101229Y-10498079D02*
X14110753Y-10536174D01*
X14110753Y-10536174D02*
X14110753Y-10583793D01*
X14110753Y-10583793D02*
X14101229Y-10621889D01*
X14101229Y-10621889D02*
X14091705Y-10640936D01*
X14091705Y-10640936D02*
X14082182Y-10650460D01*
X14082182Y-10650460D02*
X14063134Y-10659984D01*
X14063134Y-10659984D02*
X14044086Y-10659984D01*
X14044086Y-10659984D02*
X14025039Y-10650460D01*
X14025039Y-10650460D02*
X14015515Y-10640936D01*
X14015515Y-10640936D02*
X14005991Y-10621889D01*
X14005991Y-10621889D02*
X13996467Y-10583793D01*
X13996467Y-10583793D02*
X13996467Y-10536174D01*
X13996467Y-10536174D02*
X14005991Y-10498079D01*
X14005991Y-10498079D02*
X14015515Y-10479031D01*
X14015515Y-10479031D02*
X14025039Y-10469508D01*
X14025039Y-10469508D02*
X14044086Y-10459984D01*
X14234562Y-10459984D02*
X14253610Y-10459984D01*
X14253610Y-10459984D02*
X14272658Y-10469508D01*
X14272658Y-10469508D02*
X14282182Y-10479031D01*
X14282182Y-10479031D02*
X14291705Y-10498079D01*
X14291705Y-10498079D02*
X14301229Y-10536174D01*
X14301229Y-10536174D02*
X14301229Y-10583793D01*
X14301229Y-10583793D02*
X14291705Y-10621889D01*
X14291705Y-10621889D02*
X14282182Y-10640936D01*
X14282182Y-10640936D02*
X14272658Y-10650460D01*
X14272658Y-10650460D02*
X14253610Y-10659984D01*
X14253610Y-10659984D02*
X14234562Y-10659984D01*
X14234562Y-10659984D02*
X14215515Y-10650460D01*
X14215515Y-10650460D02*
X14205991Y-10640936D01*
X14205991Y-10640936D02*
X14196467Y-10621889D01*
X14196467Y-10621889D02*
X14186943Y-10583793D01*
X14186943Y-10583793D02*
X14186943Y-10536174D01*
X14186943Y-10536174D02*
X14196467Y-10498079D01*
X14196467Y-10498079D02*
X14205991Y-10479031D01*
X14205991Y-10479031D02*
X14215515Y-10469508D01*
X14215515Y-10469508D02*
X14234562Y-10459984D01*
X14425039Y-10459984D02*
X14444086Y-10459984D01*
X14444086Y-10459984D02*
X14463134Y-10469508D01*
X14463134Y-10469508D02*
X14472658Y-10479031D01*
X14472658Y-10479031D02*
X14482182Y-10498079D01*
X14482182Y-10498079D02*
X14491705Y-10536174D01*
X14491705Y-10536174D02*
X14491705Y-10583793D01*
X14491705Y-10583793D02*
X14482182Y-10621889D01*
X14482182Y-10621889D02*
X14472658Y-10640936D01*
X14472658Y-10640936D02*
X14463134Y-10650460D01*
X14463134Y-10650460D02*
X14444086Y-10659984D01*
X14444086Y-10659984D02*
X14425039Y-10659984D01*
X14425039Y-10659984D02*
X14405991Y-10650460D01*
X14405991Y-10650460D02*
X14396467Y-10640936D01*
X14396467Y-10640936D02*
X14386943Y-10621889D01*
X14386943Y-10621889D02*
X14377420Y-10583793D01*
X14377420Y-10583793D02*
X14377420Y-10536174D01*
X14377420Y-10536174D02*
X14386943Y-10498079D01*
X14386943Y-10498079D02*
X14396467Y-10479031D01*
X14396467Y-10479031D02*
X14405991Y-10469508D01*
X14405991Y-10469508D02*
X14425039Y-10459984D01*
X14577420Y-10659984D02*
X14577420Y-10526650D01*
X14577420Y-10545698D02*
X14586943Y-10536174D01*
X14586943Y-10536174D02*
X14605991Y-10526650D01*
X14605991Y-10526650D02*
X14634563Y-10526650D01*
X14634563Y-10526650D02*
X14653610Y-10536174D01*
X14653610Y-10536174D02*
X14663134Y-10555222D01*
X14663134Y-10555222D02*
X14663134Y-10659984D01*
X14663134Y-10555222D02*
X14672658Y-10536174D01*
X14672658Y-10536174D02*
X14691705Y-10526650D01*
X14691705Y-10526650D02*
X14720277Y-10526650D01*
X14720277Y-10526650D02*
X14739324Y-10536174D01*
X14739324Y-10536174D02*
X14748848Y-10555222D01*
X14748848Y-10555222D02*
X14748848Y-10659984D01*
X14844086Y-10659984D02*
X14844086Y-10526650D01*
X14844086Y-10545698D02*
X14853610Y-10536174D01*
X14853610Y-10536174D02*
X14872658Y-10526650D01*
X14872658Y-10526650D02*
X14901229Y-10526650D01*
X14901229Y-10526650D02*
X14920277Y-10536174D01*
X14920277Y-10536174D02*
X14929801Y-10555222D01*
X14929801Y-10555222D02*
X14929801Y-10659984D01*
X14929801Y-10555222D02*
X14939324Y-10536174D01*
X14939324Y-10536174D02*
X14958372Y-10526650D01*
X14958372Y-10526650D02*
X14986943Y-10526650D01*
X14986943Y-10526650D02*
X15005991Y-10536174D01*
X15005991Y-10536174D02*
X15015515Y-10555222D01*
X15015515Y-10555222D02*
X15015515Y-10659984D01*
X15405991Y-10450460D02*
X15234563Y-10707603D01*
X15663134Y-10459984D02*
X15682182Y-10459984D01*
X15682182Y-10459984D02*
X15701229Y-10469508D01*
X15701229Y-10469508D02*
X15710753Y-10479031D01*
X15710753Y-10479031D02*
X15720277Y-10498079D01*
X15720277Y-10498079D02*
X15729801Y-10536174D01*
X15729801Y-10536174D02*
X15729801Y-10583793D01*
X15729801Y-10583793D02*
X15720277Y-10621889D01*
X15720277Y-10621889D02*
X15710753Y-10640936D01*
X15710753Y-10640936D02*
X15701229Y-10650460D01*
X15701229Y-10650460D02*
X15682182Y-10659984D01*
X15682182Y-10659984D02*
X15663134Y-10659984D01*
X15663134Y-10659984D02*
X15644086Y-10650460D01*
X15644086Y-10650460D02*
X15634563Y-10640936D01*
X15634563Y-10640936D02*
X15625039Y-10621889D01*
X15625039Y-10621889D02*
X15615515Y-10583793D01*
X15615515Y-10583793D02*
X15615515Y-10536174D01*
X15615515Y-10536174D02*
X15625039Y-10498079D01*
X15625039Y-10498079D02*
X15634563Y-10479031D01*
X15634563Y-10479031D02*
X15644086Y-10469508D01*
X15644086Y-10469508D02*
X15663134Y-10459984D01*
X15815515Y-10640936D02*
X15825039Y-10650460D01*
X15825039Y-10650460D02*
X15815515Y-10659984D01*
X15815515Y-10659984D02*
X15805991Y-10650460D01*
X15805991Y-10650460D02*
X15815515Y-10640936D01*
X15815515Y-10640936D02*
X15815515Y-10659984D01*
X15948848Y-10459984D02*
X15967896Y-10459984D01*
X15967896Y-10459984D02*
X15986944Y-10469508D01*
X15986944Y-10469508D02*
X15996467Y-10479031D01*
X15996467Y-10479031D02*
X16005991Y-10498079D01*
X16005991Y-10498079D02*
X16015515Y-10536174D01*
X16015515Y-10536174D02*
X16015515Y-10583793D01*
X16015515Y-10583793D02*
X16005991Y-10621889D01*
X16005991Y-10621889D02*
X15996467Y-10640936D01*
X15996467Y-10640936D02*
X15986944Y-10650460D01*
X15986944Y-10650460D02*
X15967896Y-10659984D01*
X15967896Y-10659984D02*
X15948848Y-10659984D01*
X15948848Y-10659984D02*
X15929801Y-10650460D01*
X15929801Y-10650460D02*
X15920277Y-10640936D01*
X15920277Y-10640936D02*
X15910753Y-10621889D01*
X15910753Y-10621889D02*
X15901229Y-10583793D01*
X15901229Y-10583793D02*
X15901229Y-10536174D01*
X15901229Y-10536174D02*
X15910753Y-10498079D01*
X15910753Y-10498079D02*
X15920277Y-10479031D01*
X15920277Y-10479031D02*
X15929801Y-10469508D01*
X15929801Y-10469508D02*
X15948848Y-10459984D01*
X16082182Y-10459984D02*
X16205991Y-10459984D01*
X16205991Y-10459984D02*
X16139325Y-10536174D01*
X16139325Y-10536174D02*
X16167896Y-10536174D01*
X16167896Y-10536174D02*
X16186944Y-10545698D01*
X16186944Y-10545698D02*
X16196467Y-10555222D01*
X16196467Y-10555222D02*
X16205991Y-10574270D01*
X16205991Y-10574270D02*
X16205991Y-10621889D01*
X16205991Y-10621889D02*
X16196467Y-10640936D01*
X16196467Y-10640936D02*
X16186944Y-10650460D01*
X16186944Y-10650460D02*
X16167896Y-10659984D01*
X16167896Y-10659984D02*
X16110753Y-10659984D01*
X16110753Y-10659984D02*
X16091706Y-10650460D01*
X16091706Y-10650460D02*
X16082182Y-10640936D01*
X16301229Y-10659984D02*
X16339325Y-10659984D01*
X16339325Y-10659984D02*
X16358372Y-10650460D01*
X16358372Y-10650460D02*
X16367896Y-10640936D01*
X16367896Y-10640936D02*
X16386944Y-10612365D01*
X16386944Y-10612365D02*
X16396467Y-10574270D01*
X16396467Y-10574270D02*
X16396467Y-10498079D01*
X16396467Y-10498079D02*
X16386944Y-10479031D01*
X16386944Y-10479031D02*
X16377420Y-10469508D01*
X16377420Y-10469508D02*
X16358372Y-10459984D01*
X16358372Y-10459984D02*
X16320277Y-10459984D01*
X16320277Y-10459984D02*
X16301229Y-10469508D01*
X16301229Y-10469508D02*
X16291706Y-10479031D01*
X16291706Y-10479031D02*
X16282182Y-10498079D01*
X16282182Y-10498079D02*
X16282182Y-10545698D01*
X16282182Y-10545698D02*
X16291706Y-10564746D01*
X16291706Y-10564746D02*
X16301229Y-10574270D01*
X16301229Y-10574270D02*
X16320277Y-10583793D01*
X16320277Y-10583793D02*
X16358372Y-10583793D01*
X16358372Y-10583793D02*
X16377420Y-10574270D01*
X16377420Y-10574270D02*
X16386944Y-10564746D01*
X16386944Y-10564746D02*
X16396467Y-10545698D01*
X16567896Y-10526650D02*
X16567896Y-10659984D01*
X16520277Y-10450460D02*
X16472658Y-10593317D01*
X16472658Y-10593317D02*
X16596467Y-10593317D01*
X16663134Y-10459984D02*
X16663134Y-10498079D01*
X16739325Y-10459984D02*
X16739325Y-10498079D01*
X17034563Y-10736174D02*
X17025039Y-10726650D01*
X17025039Y-10726650D02*
X17005991Y-10698079D01*
X17005991Y-10698079D02*
X16996468Y-10679031D01*
X16996468Y-10679031D02*
X16986944Y-10650460D01*
X16986944Y-10650460D02*
X16977420Y-10602841D01*
X16977420Y-10602841D02*
X16977420Y-10564746D01*
X16977420Y-10564746D02*
X16986944Y-10517127D01*
X16986944Y-10517127D02*
X16996468Y-10488555D01*
X16996468Y-10488555D02*
X17005991Y-10469508D01*
X17005991Y-10469508D02*
X17025039Y-10440936D01*
X17025039Y-10440936D02*
X17034563Y-10431412D01*
X17215515Y-10659984D02*
X17101230Y-10659984D01*
X17158372Y-10659984D02*
X17158372Y-10459984D01*
X17158372Y-10459984D02*
X17139325Y-10488555D01*
X17139325Y-10488555D02*
X17120277Y-10507603D01*
X17120277Y-10507603D02*
X17101230Y-10517127D01*
X17339325Y-10459984D02*
X17358372Y-10459984D01*
X17358372Y-10459984D02*
X17377420Y-10469508D01*
X17377420Y-10469508D02*
X17386944Y-10479031D01*
X17386944Y-10479031D02*
X17396468Y-10498079D01*
X17396468Y-10498079D02*
X17405991Y-10536174D01*
X17405991Y-10536174D02*
X17405991Y-10583793D01*
X17405991Y-10583793D02*
X17396468Y-10621889D01*
X17396468Y-10621889D02*
X17386944Y-10640936D01*
X17386944Y-10640936D02*
X17377420Y-10650460D01*
X17377420Y-10650460D02*
X17358372Y-10659984D01*
X17358372Y-10659984D02*
X17339325Y-10659984D01*
X17339325Y-10659984D02*
X17320277Y-10650460D01*
X17320277Y-10650460D02*
X17310753Y-10640936D01*
X17310753Y-10640936D02*
X17301230Y-10621889D01*
X17301230Y-10621889D02*
X17291706Y-10583793D01*
X17291706Y-10583793D02*
X17291706Y-10536174D01*
X17291706Y-10536174D02*
X17301230Y-10498079D01*
X17301230Y-10498079D02*
X17310753Y-10479031D01*
X17310753Y-10479031D02*
X17320277Y-10469508D01*
X17320277Y-10469508D02*
X17339325Y-10459984D01*
X17644087Y-10659984D02*
X17644087Y-10459984D01*
X17729801Y-10659984D02*
X17729801Y-10555222D01*
X17729801Y-10555222D02*
X17720277Y-10536174D01*
X17720277Y-10536174D02*
X17701230Y-10526650D01*
X17701230Y-10526650D02*
X17672658Y-10526650D01*
X17672658Y-10526650D02*
X17653611Y-10536174D01*
X17653611Y-10536174D02*
X17644087Y-10545698D01*
X17853611Y-10659984D02*
X17834563Y-10650460D01*
X17834563Y-10650460D02*
X17825039Y-10640936D01*
X17825039Y-10640936D02*
X17815515Y-10621889D01*
X17815515Y-10621889D02*
X17815515Y-10564746D01*
X17815515Y-10564746D02*
X17825039Y-10545698D01*
X17825039Y-10545698D02*
X17834563Y-10536174D01*
X17834563Y-10536174D02*
X17853611Y-10526650D01*
X17853611Y-10526650D02*
X17882182Y-10526650D01*
X17882182Y-10526650D02*
X17901230Y-10536174D01*
X17901230Y-10536174D02*
X17910753Y-10545698D01*
X17910753Y-10545698D02*
X17920277Y-10564746D01*
X17920277Y-10564746D02*
X17920277Y-10621889D01*
X17920277Y-10621889D02*
X17910753Y-10640936D01*
X17910753Y-10640936D02*
X17901230Y-10650460D01*
X17901230Y-10650460D02*
X17882182Y-10659984D01*
X17882182Y-10659984D02*
X17853611Y-10659984D01*
X18034563Y-10659984D02*
X18015515Y-10650460D01*
X18015515Y-10650460D02*
X18005992Y-10631412D01*
X18005992Y-10631412D02*
X18005992Y-10459984D01*
X18186944Y-10650460D02*
X18167896Y-10659984D01*
X18167896Y-10659984D02*
X18129801Y-10659984D01*
X18129801Y-10659984D02*
X18110753Y-10650460D01*
X18110753Y-10650460D02*
X18101230Y-10631412D01*
X18101230Y-10631412D02*
X18101230Y-10555222D01*
X18101230Y-10555222D02*
X18110753Y-10536174D01*
X18110753Y-10536174D02*
X18129801Y-10526650D01*
X18129801Y-10526650D02*
X18167896Y-10526650D01*
X18167896Y-10526650D02*
X18186944Y-10536174D01*
X18186944Y-10536174D02*
X18196468Y-10555222D01*
X18196468Y-10555222D02*
X18196468Y-10574270D01*
X18196468Y-10574270D02*
X18101230Y-10593317D01*
X18272658Y-10650460D02*
X18291706Y-10659984D01*
X18291706Y-10659984D02*
X18329801Y-10659984D01*
X18329801Y-10659984D02*
X18348849Y-10650460D01*
X18348849Y-10650460D02*
X18358373Y-10631412D01*
X18358373Y-10631412D02*
X18358373Y-10621889D01*
X18358373Y-10621889D02*
X18348849Y-10602841D01*
X18348849Y-10602841D02*
X18329801Y-10593317D01*
X18329801Y-10593317D02*
X18301230Y-10593317D01*
X18301230Y-10593317D02*
X18282182Y-10583793D01*
X18282182Y-10583793D02*
X18272658Y-10564746D01*
X18272658Y-10564746D02*
X18272658Y-10555222D01*
X18272658Y-10555222D02*
X18282182Y-10536174D01*
X18282182Y-10536174D02*
X18301230Y-10526650D01*
X18301230Y-10526650D02*
X18329801Y-10526650D01*
X18329801Y-10526650D02*
X18348849Y-10536174D01*
X18425039Y-10736174D02*
X18434563Y-10726650D01*
X18434563Y-10726650D02*
X18453611Y-10698079D01*
X18453611Y-10698079D02*
X18463134Y-10679031D01*
X18463134Y-10679031D02*
X18472658Y-10650460D01*
X18472658Y-10650460D02*
X18482182Y-10602841D01*
X18482182Y-10602841D02*
X18482182Y-10564746D01*
X18482182Y-10564746D02*
X18472658Y-10517127D01*
X18472658Y-10517127D02*
X18463134Y-10488555D01*
X18463134Y-10488555D02*
X18453611Y-10469508D01*
X18453611Y-10469508D02*
X18434563Y-10440936D01*
X18434563Y-10440936D02*
X18425039Y-10431412D01*
M02*
