M48
; DRILL file {KiCad 8.0.3} date 2024-07-12T00:46:37-0500
; FORMAT={-:-/ absolute / inch / decimal}
; #@! TF.CreationDate,2024-07-12T00:46:37-05:00
; #@! TF.GenerationSoftware,Kicad,Pcbnew,8.0.3
; #@! TF.FileFunction,Plated,1,2,PTH
FMAT,2
INCH
; #@! TA.AperFunction,Plated,PTH,ViaDrill
T1C0.0118
; #@! TA.AperFunction,Plated,PTH,ComponentDrill
T2C0.0300
; #@! TA.AperFunction,Plated,PTH,ComponentDrill
T3C0.0315
%
G90
G05
T1
X5.6989Y-3.5563
X5.7543Y-3.5795
X5.8Y-3.4
X5.8286Y-3.6679
X5.8561Y-3.5842
T2
X5.4Y-3.3
X5.4Y-3.4
X5.4Y-3.5
X5.6Y-3.3
X5.6Y-3.6
X5.9Y-3.3
X5.9Y-3.5
X6.0Y-3.3
X6.0Y-3.6
X6.2Y-3.3
X6.2Y-3.4
X6.2Y-3.5
T3
X5.6Y-3.1
X5.6787Y-3.1
X5.7575Y-3.1
X5.8362Y-3.1
M30
