%TF.GenerationSoftware,KiCad,Pcbnew,8.0.3*%
%TF.CreationDate,2024-07-22T19:56:27-05:00*%
%TF.ProjectId,WS2811 breakout board,57533238-3131-4206-9272-65616b6f7574,rev?*%
%TF.SameCoordinates,Original*%
%TF.FileFunction,Legend,Top*%
%TF.FilePolarity,Positive*%
%FSLAX46Y46*%
G04 Gerber Fmt 4.6, Leading zero omitted, Abs format (unit mm)*
G04 Created by KiCad (PCBNEW 8.0.3) date 2024-07-22 19:56:27*
%MOMM*%
%LPD*%
G01*
G04 APERTURE LIST*
%ADD10C,0.100000*%
%ADD11C,0.120000*%
G04 APERTURE END LIST*
D10*
X148656031Y-82681206D02*
X150997081Y-82681206D01*
X150997081Y-90105681D01*
X148656031Y-90105681D01*
X148656031Y-82681206D01*
X141096070Y-82580875D02*
X143437120Y-82580875D01*
X143437120Y-92613950D01*
X141096070Y-92613950D01*
X141096070Y-82580875D01*
X151197743Y-82681206D02*
X153538793Y-82681206D01*
X153538793Y-92580506D01*
X151197743Y-92580506D01*
X151197743Y-82681206D01*
X148876899Y-81321803D02*
X148972137Y-81321803D01*
X148972137Y-81321803D02*
X149067375Y-81369422D01*
X149067375Y-81369422D02*
X149114994Y-81417041D01*
X149114994Y-81417041D02*
X149162613Y-81512279D01*
X149162613Y-81512279D02*
X149210232Y-81702755D01*
X149210232Y-81702755D02*
X149210232Y-81940850D01*
X149210232Y-81940850D02*
X149162613Y-82131326D01*
X149162613Y-82131326D02*
X149114994Y-82226564D01*
X149114994Y-82226564D02*
X149067375Y-82274184D01*
X149067375Y-82274184D02*
X148972137Y-82321803D01*
X148972137Y-82321803D02*
X148876899Y-82321803D01*
X148876899Y-82321803D02*
X148781661Y-82274184D01*
X148781661Y-82274184D02*
X148734042Y-82226564D01*
X148734042Y-82226564D02*
X148686423Y-82131326D01*
X148686423Y-82131326D02*
X148638804Y-81940850D01*
X148638804Y-81940850D02*
X148638804Y-81702755D01*
X148638804Y-81702755D02*
X148686423Y-81512279D01*
X148686423Y-81512279D02*
X148734042Y-81417041D01*
X148734042Y-81417041D02*
X148781661Y-81369422D01*
X148781661Y-81369422D02*
X148876899Y-81321803D01*
X149638804Y-82226564D02*
X149686423Y-82274184D01*
X149686423Y-82274184D02*
X149638804Y-82321803D01*
X149638804Y-82321803D02*
X149591185Y-82274184D01*
X149591185Y-82274184D02*
X149638804Y-82226564D01*
X149638804Y-82226564D02*
X149638804Y-82321803D01*
X150638803Y-82321803D02*
X150067375Y-82321803D01*
X150353089Y-82321803D02*
X150353089Y-81321803D01*
X150353089Y-81321803D02*
X150257851Y-81464660D01*
X150257851Y-81464660D02*
X150162613Y-81559898D01*
X150162613Y-81559898D02*
X150067375Y-81607517D01*
X151495946Y-81655136D02*
X151495946Y-82321803D01*
X151067375Y-81655136D02*
X151067375Y-82178945D01*
X151067375Y-82178945D02*
X151114994Y-82274184D01*
X151114994Y-82274184D02*
X151210232Y-82321803D01*
X151210232Y-82321803D02*
X151353089Y-82321803D01*
X151353089Y-82321803D02*
X151448327Y-82274184D01*
X151448327Y-82274184D02*
X151495946Y-82226564D01*
X152305470Y-81797993D02*
X151972137Y-81797993D01*
X151972137Y-82321803D02*
X151972137Y-81321803D01*
X151972137Y-81321803D02*
X152448327Y-81321803D01*
X151339502Y-92723781D02*
X151958549Y-92723781D01*
X151958549Y-92723781D02*
X151625216Y-93104733D01*
X151625216Y-93104733D02*
X151768073Y-93104733D01*
X151768073Y-93104733D02*
X151863311Y-93152352D01*
X151863311Y-93152352D02*
X151910930Y-93199971D01*
X151910930Y-93199971D02*
X151958549Y-93295209D01*
X151958549Y-93295209D02*
X151958549Y-93533304D01*
X151958549Y-93533304D02*
X151910930Y-93628542D01*
X151910930Y-93628542D02*
X151863311Y-93676162D01*
X151863311Y-93676162D02*
X151768073Y-93723781D01*
X151768073Y-93723781D02*
X151482359Y-93723781D01*
X151482359Y-93723781D02*
X151387121Y-93676162D01*
X151387121Y-93676162D02*
X151339502Y-93628542D01*
X152291883Y-92723781D02*
X152910930Y-92723781D01*
X152910930Y-92723781D02*
X152577597Y-93104733D01*
X152577597Y-93104733D02*
X152720454Y-93104733D01*
X152720454Y-93104733D02*
X152815692Y-93152352D01*
X152815692Y-93152352D02*
X152863311Y-93199971D01*
X152863311Y-93199971D02*
X152910930Y-93295209D01*
X152910930Y-93295209D02*
X152910930Y-93533304D01*
X152910930Y-93533304D02*
X152863311Y-93628542D01*
X152863311Y-93628542D02*
X152815692Y-93676162D01*
X152815692Y-93676162D02*
X152720454Y-93723781D01*
X152720454Y-93723781D02*
X152434740Y-93723781D01*
X152434740Y-93723781D02*
X152339502Y-93676162D01*
X152339502Y-93676162D02*
X152291883Y-93628542D01*
X153291883Y-93723781D02*
X153529978Y-93723781D01*
X153529978Y-93723781D02*
X153529978Y-93533304D01*
X153529978Y-93533304D02*
X153434740Y-93485685D01*
X153434740Y-93485685D02*
X153339502Y-93390447D01*
X153339502Y-93390447D02*
X153291883Y-93247590D01*
X153291883Y-93247590D02*
X153291883Y-93009495D01*
X153291883Y-93009495D02*
X153339502Y-92866638D01*
X153339502Y-92866638D02*
X153434740Y-92771400D01*
X153434740Y-92771400D02*
X153577597Y-92723781D01*
X153577597Y-92723781D02*
X153768073Y-92723781D01*
X153768073Y-92723781D02*
X153910930Y-92771400D01*
X153910930Y-92771400D02*
X154006168Y-92866638D01*
X154006168Y-92866638D02*
X154053787Y-93009495D01*
X154053787Y-93009495D02*
X154053787Y-93247590D01*
X154053787Y-93247590D02*
X154006168Y-93390447D01*
X154006168Y-93390447D02*
X153910930Y-93485685D01*
X153910930Y-93485685D02*
X153815692Y-93533304D01*
X153815692Y-93533304D02*
X153815692Y-93723781D01*
X153815692Y-93723781D02*
X154053787Y-93723781D01*
X156807868Y-76818811D02*
X156712630Y-76771192D01*
X156712630Y-76771192D02*
X156569773Y-76771192D01*
X156569773Y-76771192D02*
X156426916Y-76818811D01*
X156426916Y-76818811D02*
X156331678Y-76914049D01*
X156331678Y-76914049D02*
X156284059Y-77009287D01*
X156284059Y-77009287D02*
X156236440Y-77199763D01*
X156236440Y-77199763D02*
X156236440Y-77342620D01*
X156236440Y-77342620D02*
X156284059Y-77533096D01*
X156284059Y-77533096D02*
X156331678Y-77628334D01*
X156331678Y-77628334D02*
X156426916Y-77723573D01*
X156426916Y-77723573D02*
X156569773Y-77771192D01*
X156569773Y-77771192D02*
X156665011Y-77771192D01*
X156665011Y-77771192D02*
X156807868Y-77723573D01*
X156807868Y-77723573D02*
X156855487Y-77675953D01*
X156855487Y-77675953D02*
X156855487Y-77342620D01*
X156855487Y-77342620D02*
X156665011Y-77342620D01*
X157284059Y-77771192D02*
X157284059Y-76771192D01*
X157284059Y-76771192D02*
X157855487Y-77771192D01*
X157855487Y-77771192D02*
X157855487Y-76771192D01*
X158331678Y-77771192D02*
X158331678Y-76771192D01*
X158331678Y-76771192D02*
X158569773Y-76771192D01*
X158569773Y-76771192D02*
X158712630Y-76818811D01*
X158712630Y-76818811D02*
X158807868Y-76914049D01*
X158807868Y-76914049D02*
X158855487Y-77009287D01*
X158855487Y-77009287D02*
X158903106Y-77199763D01*
X158903106Y-77199763D02*
X158903106Y-77342620D01*
X158903106Y-77342620D02*
X158855487Y-77533096D01*
X158855487Y-77533096D02*
X158807868Y-77628334D01*
X158807868Y-77628334D02*
X158712630Y-77723573D01*
X158712630Y-77723573D02*
X158569773Y-77771192D01*
X158569773Y-77771192D02*
X158331678Y-77771192D01*
X139958767Y-80431601D02*
X139958767Y-79812554D01*
X139958767Y-79812554D02*
X140339719Y-80145887D01*
X140339719Y-80145887D02*
X140339719Y-80003030D01*
X140339719Y-80003030D02*
X140387338Y-79907792D01*
X140387338Y-79907792D02*
X140434957Y-79860173D01*
X140434957Y-79860173D02*
X140530195Y-79812554D01*
X140530195Y-79812554D02*
X140768290Y-79812554D01*
X140768290Y-79812554D02*
X140863528Y-79860173D01*
X140863528Y-79860173D02*
X140911148Y-79907792D01*
X140911148Y-79907792D02*
X140958767Y-80003030D01*
X140958767Y-80003030D02*
X140958767Y-80288744D01*
X140958767Y-80288744D02*
X140911148Y-80383982D01*
X140911148Y-80383982D02*
X140863528Y-80431601D01*
X140863528Y-79383982D02*
X140911148Y-79336363D01*
X140911148Y-79336363D02*
X140958767Y-79383982D01*
X140958767Y-79383982D02*
X140911148Y-79431601D01*
X140911148Y-79431601D02*
X140863528Y-79383982D01*
X140863528Y-79383982D02*
X140958767Y-79383982D01*
X139958767Y-79003030D02*
X139958767Y-78383983D01*
X139958767Y-78383983D02*
X140339719Y-78717316D01*
X140339719Y-78717316D02*
X140339719Y-78574459D01*
X140339719Y-78574459D02*
X140387338Y-78479221D01*
X140387338Y-78479221D02*
X140434957Y-78431602D01*
X140434957Y-78431602D02*
X140530195Y-78383983D01*
X140530195Y-78383983D02*
X140768290Y-78383983D01*
X140768290Y-78383983D02*
X140863528Y-78431602D01*
X140863528Y-78431602D02*
X140911148Y-78479221D01*
X140911148Y-78479221D02*
X140958767Y-78574459D01*
X140958767Y-78574459D02*
X140958767Y-78860173D01*
X140958767Y-78860173D02*
X140911148Y-78955411D01*
X140911148Y-78955411D02*
X140863528Y-79003030D01*
X139958767Y-78098268D02*
X140958767Y-77764935D01*
X140958767Y-77764935D02*
X139958767Y-77431602D01*
X139958767Y-76907792D02*
X139958767Y-76717316D01*
X139958767Y-76717316D02*
X140006386Y-76622078D01*
X140006386Y-76622078D02*
X140101624Y-76526840D01*
X140101624Y-76526840D02*
X140292100Y-76479221D01*
X140292100Y-76479221D02*
X140625433Y-76479221D01*
X140625433Y-76479221D02*
X140815909Y-76526840D01*
X140815909Y-76526840D02*
X140911148Y-76622078D01*
X140911148Y-76622078D02*
X140958767Y-76717316D01*
X140958767Y-76717316D02*
X140958767Y-76907792D01*
X140958767Y-76907792D02*
X140911148Y-77003030D01*
X140911148Y-77003030D02*
X140815909Y-77098268D01*
X140815909Y-77098268D02*
X140625433Y-77145887D01*
X140625433Y-77145887D02*
X140292100Y-77145887D01*
X140292100Y-77145887D02*
X140101624Y-77098268D01*
X140101624Y-77098268D02*
X140006386Y-77003030D01*
X140006386Y-77003030D02*
X139958767Y-76907792D01*
X136253945Y-78958402D02*
X136253945Y-77958402D01*
X136253945Y-77958402D02*
X136492040Y-77958402D01*
X136492040Y-77958402D02*
X136634897Y-78006021D01*
X136634897Y-78006021D02*
X136730135Y-78101259D01*
X136730135Y-78101259D02*
X136777754Y-78196497D01*
X136777754Y-78196497D02*
X136825373Y-78386973D01*
X136825373Y-78386973D02*
X136825373Y-78529830D01*
X136825373Y-78529830D02*
X136777754Y-78720306D01*
X136777754Y-78720306D02*
X136730135Y-78815544D01*
X136730135Y-78815544D02*
X136634897Y-78910783D01*
X136634897Y-78910783D02*
X136492040Y-78958402D01*
X136492040Y-78958402D02*
X136253945Y-78958402D01*
X137253945Y-78958402D02*
X137253945Y-77958402D01*
X137730135Y-78958402D02*
X137730135Y-77958402D01*
X137730135Y-77958402D02*
X138301563Y-78958402D01*
X138301563Y-78958402D02*
X138301563Y-77958402D01*
X136577092Y-76701721D02*
X136481854Y-76654102D01*
X136481854Y-76654102D02*
X136338997Y-76654102D01*
X136338997Y-76654102D02*
X136196140Y-76701721D01*
X136196140Y-76701721D02*
X136100902Y-76796959D01*
X136100902Y-76796959D02*
X136053283Y-76892197D01*
X136053283Y-76892197D02*
X136005664Y-77082673D01*
X136005664Y-77082673D02*
X136005664Y-77225530D01*
X136005664Y-77225530D02*
X136053283Y-77416006D01*
X136053283Y-77416006D02*
X136100902Y-77511244D01*
X136100902Y-77511244D02*
X136196140Y-77606483D01*
X136196140Y-77606483D02*
X136338997Y-77654102D01*
X136338997Y-77654102D02*
X136434235Y-77654102D01*
X136434235Y-77654102D02*
X136577092Y-77606483D01*
X136577092Y-77606483D02*
X136624711Y-77558863D01*
X136624711Y-77558863D02*
X136624711Y-77225530D01*
X136624711Y-77225530D02*
X136434235Y-77225530D01*
X137053283Y-77654102D02*
X137053283Y-76654102D01*
X137053283Y-76654102D02*
X137624711Y-77654102D01*
X137624711Y-77654102D02*
X137624711Y-76654102D01*
X138100902Y-77654102D02*
X138100902Y-76654102D01*
X138100902Y-76654102D02*
X138338997Y-76654102D01*
X138338997Y-76654102D02*
X138481854Y-76701721D01*
X138481854Y-76701721D02*
X138577092Y-76796959D01*
X138577092Y-76796959D02*
X138624711Y-76892197D01*
X138624711Y-76892197D02*
X138672330Y-77082673D01*
X138672330Y-77082673D02*
X138672330Y-77225530D01*
X138672330Y-77225530D02*
X138624711Y-77416006D01*
X138624711Y-77416006D02*
X138577092Y-77511244D01*
X138577092Y-77511244D02*
X138481854Y-77606483D01*
X138481854Y-77606483D02*
X138338997Y-77654102D01*
X138338997Y-77654102D02*
X138100902Y-77654102D01*
X155820941Y-79413235D02*
X156439988Y-79413235D01*
X156439988Y-79413235D02*
X156106655Y-79794187D01*
X156106655Y-79794187D02*
X156249512Y-79794187D01*
X156249512Y-79794187D02*
X156344750Y-79841806D01*
X156344750Y-79841806D02*
X156392369Y-79889425D01*
X156392369Y-79889425D02*
X156439988Y-79984663D01*
X156439988Y-79984663D02*
X156439988Y-80222758D01*
X156439988Y-80222758D02*
X156392369Y-80317996D01*
X156392369Y-80317996D02*
X156344750Y-80365616D01*
X156344750Y-80365616D02*
X156249512Y-80413235D01*
X156249512Y-80413235D02*
X155963798Y-80413235D01*
X155963798Y-80413235D02*
X155868560Y-80365616D01*
X155868560Y-80365616D02*
X155820941Y-80317996D01*
X156868560Y-80317996D02*
X156916179Y-80365616D01*
X156916179Y-80365616D02*
X156868560Y-80413235D01*
X156868560Y-80413235D02*
X156820941Y-80365616D01*
X156820941Y-80365616D02*
X156868560Y-80317996D01*
X156868560Y-80317996D02*
X156868560Y-80413235D01*
X157249512Y-79413235D02*
X157868559Y-79413235D01*
X157868559Y-79413235D02*
X157535226Y-79794187D01*
X157535226Y-79794187D02*
X157678083Y-79794187D01*
X157678083Y-79794187D02*
X157773321Y-79841806D01*
X157773321Y-79841806D02*
X157820940Y-79889425D01*
X157820940Y-79889425D02*
X157868559Y-79984663D01*
X157868559Y-79984663D02*
X157868559Y-80222758D01*
X157868559Y-80222758D02*
X157820940Y-80317996D01*
X157820940Y-80317996D02*
X157773321Y-80365616D01*
X157773321Y-80365616D02*
X157678083Y-80413235D01*
X157678083Y-80413235D02*
X157392369Y-80413235D01*
X157392369Y-80413235D02*
X157297131Y-80365616D01*
X157297131Y-80365616D02*
X157249512Y-80317996D01*
X158154274Y-79413235D02*
X158487607Y-80413235D01*
X158487607Y-80413235D02*
X158820940Y-79413235D01*
X159344750Y-79413235D02*
X159535226Y-79413235D01*
X159535226Y-79413235D02*
X159630464Y-79460854D01*
X159630464Y-79460854D02*
X159725702Y-79556092D01*
X159725702Y-79556092D02*
X159773321Y-79746568D01*
X159773321Y-79746568D02*
X159773321Y-80079901D01*
X159773321Y-80079901D02*
X159725702Y-80270377D01*
X159725702Y-80270377D02*
X159630464Y-80365616D01*
X159630464Y-80365616D02*
X159535226Y-80413235D01*
X159535226Y-80413235D02*
X159344750Y-80413235D01*
X159344750Y-80413235D02*
X159249512Y-80365616D01*
X159249512Y-80365616D02*
X159154274Y-80270377D01*
X159154274Y-80270377D02*
X159106655Y-80079901D01*
X159106655Y-80079901D02*
X159106655Y-79746568D01*
X159106655Y-79746568D02*
X159154274Y-79556092D01*
X159154274Y-79556092D02*
X159249512Y-79460854D01*
X159249512Y-79460854D02*
X159344750Y-79413235D01*
X135222286Y-79162370D02*
X135841333Y-79162370D01*
X135841333Y-79162370D02*
X135508000Y-79543322D01*
X135508000Y-79543322D02*
X135650857Y-79543322D01*
X135650857Y-79543322D02*
X135746095Y-79590941D01*
X135746095Y-79590941D02*
X135793714Y-79638560D01*
X135793714Y-79638560D02*
X135841333Y-79733798D01*
X135841333Y-79733798D02*
X135841333Y-79971893D01*
X135841333Y-79971893D02*
X135793714Y-80067131D01*
X135793714Y-80067131D02*
X135746095Y-80114751D01*
X135746095Y-80114751D02*
X135650857Y-80162370D01*
X135650857Y-80162370D02*
X135365143Y-80162370D01*
X135365143Y-80162370D02*
X135269905Y-80114751D01*
X135269905Y-80114751D02*
X135222286Y-80067131D01*
X136269905Y-80067131D02*
X136317524Y-80114751D01*
X136317524Y-80114751D02*
X136269905Y-80162370D01*
X136269905Y-80162370D02*
X136222286Y-80114751D01*
X136222286Y-80114751D02*
X136269905Y-80067131D01*
X136269905Y-80067131D02*
X136269905Y-80162370D01*
X136650857Y-79162370D02*
X137269904Y-79162370D01*
X137269904Y-79162370D02*
X136936571Y-79543322D01*
X136936571Y-79543322D02*
X137079428Y-79543322D01*
X137079428Y-79543322D02*
X137174666Y-79590941D01*
X137174666Y-79590941D02*
X137222285Y-79638560D01*
X137222285Y-79638560D02*
X137269904Y-79733798D01*
X137269904Y-79733798D02*
X137269904Y-79971893D01*
X137269904Y-79971893D02*
X137222285Y-80067131D01*
X137222285Y-80067131D02*
X137174666Y-80114751D01*
X137174666Y-80114751D02*
X137079428Y-80162370D01*
X137079428Y-80162370D02*
X136793714Y-80162370D01*
X136793714Y-80162370D02*
X136698476Y-80114751D01*
X136698476Y-80114751D02*
X136650857Y-80067131D01*
X137555619Y-79162370D02*
X137888952Y-80162370D01*
X137888952Y-80162370D02*
X138222285Y-79162370D01*
X138555619Y-80162370D02*
X138555619Y-79162370D01*
X139031809Y-80162370D02*
X139031809Y-79162370D01*
X139031809Y-79162370D02*
X139603237Y-80162370D01*
X139603237Y-80162370D02*
X139603237Y-79162370D01*
X140909570Y-92809811D02*
X141528617Y-92809811D01*
X141528617Y-92809811D02*
X141195284Y-93190763D01*
X141195284Y-93190763D02*
X141338141Y-93190763D01*
X141338141Y-93190763D02*
X141433379Y-93238382D01*
X141433379Y-93238382D02*
X141480998Y-93286001D01*
X141480998Y-93286001D02*
X141528617Y-93381239D01*
X141528617Y-93381239D02*
X141528617Y-93619334D01*
X141528617Y-93619334D02*
X141480998Y-93714572D01*
X141480998Y-93714572D02*
X141433379Y-93762192D01*
X141433379Y-93762192D02*
X141338141Y-93809811D01*
X141338141Y-93809811D02*
X141052427Y-93809811D01*
X141052427Y-93809811D02*
X140957189Y-93762192D01*
X140957189Y-93762192D02*
X140909570Y-93714572D01*
X141861951Y-92809811D02*
X142480998Y-92809811D01*
X142480998Y-92809811D02*
X142147665Y-93190763D01*
X142147665Y-93190763D02*
X142290522Y-93190763D01*
X142290522Y-93190763D02*
X142385760Y-93238382D01*
X142385760Y-93238382D02*
X142433379Y-93286001D01*
X142433379Y-93286001D02*
X142480998Y-93381239D01*
X142480998Y-93381239D02*
X142480998Y-93619334D01*
X142480998Y-93619334D02*
X142433379Y-93714572D01*
X142433379Y-93714572D02*
X142385760Y-93762192D01*
X142385760Y-93762192D02*
X142290522Y-93809811D01*
X142290522Y-93809811D02*
X142004808Y-93809811D01*
X142004808Y-93809811D02*
X141909570Y-93762192D01*
X141909570Y-93762192D02*
X141861951Y-93714572D01*
X142861951Y-93809811D02*
X143100046Y-93809811D01*
X143100046Y-93809811D02*
X143100046Y-93619334D01*
X143100046Y-93619334D02*
X143004808Y-93571715D01*
X143004808Y-93571715D02*
X142909570Y-93476477D01*
X142909570Y-93476477D02*
X142861951Y-93333620D01*
X142861951Y-93333620D02*
X142861951Y-93095525D01*
X142861951Y-93095525D02*
X142909570Y-92952668D01*
X142909570Y-92952668D02*
X143004808Y-92857430D01*
X143004808Y-92857430D02*
X143147665Y-92809811D01*
X143147665Y-92809811D02*
X143338141Y-92809811D01*
X143338141Y-92809811D02*
X143480998Y-92857430D01*
X143480998Y-92857430D02*
X143576236Y-92952668D01*
X143576236Y-92952668D02*
X143623855Y-93095525D01*
X143623855Y-93095525D02*
X143623855Y-93333620D01*
X143623855Y-93333620D02*
X143576236Y-93476477D01*
X143576236Y-93476477D02*
X143480998Y-93571715D01*
X143480998Y-93571715D02*
X143385760Y-93619334D01*
X143385760Y-93619334D02*
X143385760Y-93809811D01*
X143385760Y-93809811D02*
X143623855Y-93809811D01*
X156752269Y-79103798D02*
X156752269Y-78103798D01*
X156752269Y-78103798D02*
X156990364Y-78103798D01*
X156990364Y-78103798D02*
X157133221Y-78151417D01*
X157133221Y-78151417D02*
X157228459Y-78246655D01*
X157228459Y-78246655D02*
X157276078Y-78341893D01*
X157276078Y-78341893D02*
X157323697Y-78532369D01*
X157323697Y-78532369D02*
X157323697Y-78675226D01*
X157323697Y-78675226D02*
X157276078Y-78865702D01*
X157276078Y-78865702D02*
X157228459Y-78960940D01*
X157228459Y-78960940D02*
X157133221Y-79056179D01*
X157133221Y-79056179D02*
X156990364Y-79103798D01*
X156990364Y-79103798D02*
X156752269Y-79103798D01*
X157942745Y-78103798D02*
X158133221Y-78103798D01*
X158133221Y-78103798D02*
X158228459Y-78151417D01*
X158228459Y-78151417D02*
X158323697Y-78246655D01*
X158323697Y-78246655D02*
X158371316Y-78437131D01*
X158371316Y-78437131D02*
X158371316Y-78770464D01*
X158371316Y-78770464D02*
X158323697Y-78960940D01*
X158323697Y-78960940D02*
X158228459Y-79056179D01*
X158228459Y-79056179D02*
X158133221Y-79103798D01*
X158133221Y-79103798D02*
X157942745Y-79103798D01*
X157942745Y-79103798D02*
X157847507Y-79056179D01*
X157847507Y-79056179D02*
X157752269Y-78960940D01*
X157752269Y-78960940D02*
X157704650Y-78770464D01*
X157704650Y-78770464D02*
X157704650Y-78437131D01*
X157704650Y-78437131D02*
X157752269Y-78246655D01*
X157752269Y-78246655D02*
X157847507Y-78151417D01*
X157847507Y-78151417D02*
X157942745Y-78103798D01*
X144809583Y-76965656D02*
X144952440Y-77013275D01*
X144952440Y-77013275D02*
X145000059Y-77060894D01*
X145000059Y-77060894D02*
X145047678Y-77156132D01*
X145047678Y-77156132D02*
X145047678Y-77298989D01*
X145047678Y-77298989D02*
X145000059Y-77394227D01*
X145000059Y-77394227D02*
X144952440Y-77441847D01*
X144952440Y-77441847D02*
X144857202Y-77489466D01*
X144857202Y-77489466D02*
X144476250Y-77489466D01*
X144476250Y-77489466D02*
X144476250Y-76489466D01*
X144476250Y-76489466D02*
X144809583Y-76489466D01*
X144809583Y-76489466D02*
X144904821Y-76537085D01*
X144904821Y-76537085D02*
X144952440Y-76584704D01*
X144952440Y-76584704D02*
X145000059Y-76679942D01*
X145000059Y-76679942D02*
X145000059Y-76775180D01*
X145000059Y-76775180D02*
X144952440Y-76870418D01*
X144952440Y-76870418D02*
X144904821Y-76918037D01*
X144904821Y-76918037D02*
X144809583Y-76965656D01*
X144809583Y-76965656D02*
X144476250Y-76965656D01*
X147523869Y-76537085D02*
X147428631Y-76489466D01*
X147428631Y-76489466D02*
X147285774Y-76489466D01*
X147285774Y-76489466D02*
X147142917Y-76537085D01*
X147142917Y-76537085D02*
X147047679Y-76632323D01*
X147047679Y-76632323D02*
X147000060Y-76727561D01*
X147000060Y-76727561D02*
X146952441Y-76918037D01*
X146952441Y-76918037D02*
X146952441Y-77060894D01*
X146952441Y-77060894D02*
X147000060Y-77251370D01*
X147000060Y-77251370D02*
X147047679Y-77346608D01*
X147047679Y-77346608D02*
X147142917Y-77441847D01*
X147142917Y-77441847D02*
X147285774Y-77489466D01*
X147285774Y-77489466D02*
X147381012Y-77489466D01*
X147381012Y-77489466D02*
X147523869Y-77441847D01*
X147523869Y-77441847D02*
X147571488Y-77394227D01*
X147571488Y-77394227D02*
X147571488Y-77060894D01*
X147571488Y-77060894D02*
X147381012Y-77060894D01*
X150095298Y-77489466D02*
X149761965Y-77013275D01*
X149523870Y-77489466D02*
X149523870Y-76489466D01*
X149523870Y-76489466D02*
X149904822Y-76489466D01*
X149904822Y-76489466D02*
X150000060Y-76537085D01*
X150000060Y-76537085D02*
X150047679Y-76584704D01*
X150047679Y-76584704D02*
X150095298Y-76679942D01*
X150095298Y-76679942D02*
X150095298Y-76822799D01*
X150095298Y-76822799D02*
X150047679Y-76918037D01*
X150047679Y-76918037D02*
X150000060Y-76965656D01*
X150000060Y-76965656D02*
X149904822Y-77013275D01*
X149904822Y-77013275D02*
X149523870Y-77013275D01*
D11*
%TO.C,REF\u002A\u002A*%
X147840881Y-90530946D02*
X149511365Y-90530946D01*
X147840881Y-92350946D02*
X149511365Y-92350946D01*
X143551604Y-86333247D02*
X143551604Y-84453247D01*
X143551604Y-86333247D02*
X143551604Y-88213247D01*
X148731604Y-86333247D02*
X148731604Y-84453247D01*
X148731604Y-86333247D02*
X148731604Y-88213247D01*
X148961604Y-83870747D02*
X148631604Y-83630747D01*
X148961604Y-83390747D01*
X148961604Y-83870747D01*
G36*
X148961604Y-83870747D02*
G01*
X148631604Y-83630747D01*
X148961604Y-83390747D01*
X148961604Y-83870747D01*
G37*
%TD*%
M02*
